G04 Layer_Physical_Order=1*
G04 Layer_Color=25308*
%FSAX24Y24*%
%MOIN*%
G70*
G01*
G75*
%ADD10R,0.0900X0.0450*%
%ADD11R,0.0450X0.0900*%
%ADD12R,0.0472X0.0709*%
%ADD13R,0.0400X0.0500*%
%ADD14O,0.0276X0.0906*%
%ADD15R,0.0500X0.0400*%
%ADD16O,0.0276X0.1083*%
%ADD17O,0.0827X0.0118*%
%ADD18O,0.0118X0.0827*%
%ADD19R,0.0945X0.0299*%
%ADD20R,0.0197X0.0984*%
%ADD21R,0.0787X0.0984*%
G04:AMPARAMS|DCode=22|XSize=68.9mil|YSize=49.2mil|CornerRadius=4.9mil|HoleSize=0mil|Usage=FLASHONLY|Rotation=180.000|XOffset=0mil|YOffset=0mil|HoleType=Round|Shape=RoundedRectangle|*
%AMROUNDEDRECTD22*
21,1,0.0689,0.0394,0,0,180.0*
21,1,0.0591,0.0492,0,0,180.0*
1,1,0.0098,-0.0295,0.0197*
1,1,0.0098,0.0295,0.0197*
1,1,0.0098,0.0295,-0.0197*
1,1,0.0098,-0.0295,-0.0197*
%
%ADD22ROUNDEDRECTD22*%
%ADD23R,0.0453X0.0512*%
%ADD24R,0.0394X0.0551*%
%ADD25R,0.1063X0.1299*%
%ADD26R,0.1063X0.0394*%
%ADD27C,0.0150*%
%ADD28C,0.0100*%
%ADD29C,0.0197*%
%ADD30C,0.0394*%
%ADD31C,0.0295*%
%ADD32R,0.2362X0.3543*%
%ADD33C,0.0600*%
%ADD34C,0.2500*%
%ADD35P,0.0866X8X22.5*%
%ADD36C,0.0800*%
%ADD37R,0.0800X0.0800*%
%ADD38R,0.0800X0.0800*%
%ADD39R,0.0600X0.0600*%
%ADD40P,0.0866X8X112.5*%
%ADD41C,0.0591*%
%ADD42R,0.0591X0.0591*%
%ADD43C,0.0354*%
%ADD44C,0.0740*%
%ADD45R,0.0740X0.0740*%
%ADD46C,0.2000*%
%ADD47C,0.0500*%
G36*
X023083Y021348D02*
Y021114D01*
X023353D01*
X023363Y021064D01*
X023331Y021051D01*
X023226Y020971D01*
X023146Y020866D01*
X023096Y020745D01*
X023078Y020614D01*
X023096Y020484D01*
X023146Y020362D01*
X023226Y020258D01*
X023331Y020177D01*
X023418Y020141D01*
Y020087D01*
X023331Y020051D01*
X023226Y019971D01*
X023146Y019866D01*
X023096Y019745D01*
X023078Y019614D01*
X023096Y019484D01*
X023146Y019362D01*
X023226Y019258D01*
X023331Y019177D01*
X023418Y019141D01*
Y019087D01*
X023331Y019051D01*
X023226Y018971D01*
X023146Y018866D01*
X023096Y018745D01*
X023085Y018664D01*
X023583D01*
Y018614D01*
X023633D01*
Y018116D01*
X023713Y018127D01*
X023835Y018177D01*
X023939Y018258D01*
X024019Y018362D01*
X024061Y018461D01*
X025162D01*
Y018291D01*
X025462D01*
Y018591D01*
Y018891D01*
X025162D01*
Y018767D01*
X024061D01*
X024019Y018866D01*
X023939Y018971D01*
X023835Y019051D01*
X023747Y019087D01*
Y019141D01*
X023835Y019177D01*
X023939Y019258D01*
X024019Y019362D01*
X024070Y019484D01*
X024071Y019492D01*
X024092Y019506D01*
X025715Y021129D01*
X025724Y021126D01*
X025760Y021103D01*
X025749Y021024D01*
X025761Y020932D01*
X025797Y020847D01*
X025853Y020774D01*
X025926Y020718D01*
X026011Y020683D01*
X026102Y020671D01*
X026194Y020683D01*
X026279Y020718D01*
X026352Y020774D01*
X026365Y020791D01*
X026417Y020787D01*
X026422Y020783D01*
Y019868D01*
X026375Y019849D01*
X026293Y019786D01*
X026230Y019703D01*
X026190Y019607D01*
X026181Y019544D01*
X025862D01*
Y019691D01*
X025162D01*
Y019091D01*
X025862D01*
Y019238D01*
X026280D01*
X026293Y019222D01*
X026375Y019159D01*
X026472Y019119D01*
X026575Y019105D01*
X026678Y019119D01*
X026774Y019159D01*
X026857Y019222D01*
X026920Y019305D01*
X026960Y019401D01*
X026973Y019504D01*
X026960Y019607D01*
X026920Y019703D01*
X026857Y019786D01*
X026774Y019849D01*
X026728Y019868D01*
Y020724D01*
X027071Y021068D01*
X027805D01*
X027819Y021020D01*
X027817Y021018D01*
X027764Y020939D01*
X027746Y020846D01*
Y020596D01*
X027550D01*
X027540Y020619D01*
X027484Y020693D01*
X027411Y020749D01*
X027326Y020784D01*
X027284Y020789D01*
Y020443D01*
X027234D01*
Y020393D01*
X026888D01*
X026893Y020352D01*
X026929Y020266D01*
X026985Y020193D01*
X027058Y020137D01*
X027143Y020102D01*
X027234Y020090D01*
Y019085D01*
X027087Y018937D01*
X027016Y018867D01*
X026970Y018886D01*
Y018899D01*
X026180D01*
Y018198D01*
X025467Y017486D01*
X022958D01*
X022840Y017603D01*
Y021176D01*
X023033Y021369D01*
X023083Y021348D01*
D02*
G37*
G36*
X025671Y026092D02*
X025621Y026087D01*
X025614Y026122D01*
X025581Y026171D01*
X025289Y026462D01*
X025240Y026496D01*
X025181Y026507D01*
X024369D01*
Y026604D01*
X023224D01*
Y026105D01*
X023224D01*
Y026104D01*
X023224D01*
Y025605D01*
X023224D01*
X023224Y025605D01*
Y025604D01*
X023224D01*
X023224Y025604D01*
Y025154D01*
X023224Y025105D01*
Y025104D01*
Y025104D01*
X023224Y025055D01*
Y024654D01*
X023224Y024605D01*
Y024604D01*
Y024604D01*
X023224Y024555D01*
Y024105D01*
X023597D01*
X023597Y024104D01*
X023609Y024055D01*
X023547Y024007D01*
X023491Y023934D01*
X023456Y023849D01*
X023444Y023758D01*
X023456Y023666D01*
X023491Y023581D01*
X023547Y023508D01*
X023583Y023481D01*
X023566Y023431D01*
X022997D01*
X022487Y023940D01*
Y024105D01*
X022834D01*
Y024178D01*
X022953D01*
X023011Y024189D01*
X023061Y024223D01*
X023094Y024272D01*
X023106Y024331D01*
Y025276D01*
X023094Y025334D01*
X023061Y025384D01*
X022982Y025462D01*
X022933Y025496D01*
X022874Y025507D01*
X022834D01*
Y025604D01*
X022834D01*
Y025605D01*
X022834D01*
Y025804D01*
X022261D01*
Y025904D01*
X022834D01*
Y026104D01*
X022834D01*
Y026105D01*
X022834D01*
Y026604D01*
X022585D01*
X022566Y026650D01*
X023045Y027129D01*
X023123Y027139D01*
X023208Y027175D01*
X023281Y027231D01*
X023337Y027304D01*
X023372Y027389D01*
X023385Y027480D01*
X023372Y027572D01*
X023337Y027657D01*
X023326Y027672D01*
X023348Y027717D01*
X025671D01*
Y026092D01*
D02*
G37*
G36*
X030784Y025064D02*
X030783Y025059D01*
X030795Y024997D01*
X030819Y024961D01*
X030795Y024924D01*
X030783Y024862D01*
X030795Y024800D01*
X030819Y024764D01*
X030795Y024727D01*
X030783Y024665D01*
X030795Y024603D01*
X030819Y024567D01*
X030795Y024531D01*
X030783Y024469D01*
X030795Y024406D01*
X030819Y024370D01*
X030795Y024334D01*
X030783Y024272D01*
X030795Y024210D01*
X030819Y024173D01*
X030795Y024137D01*
X030783Y024075D01*
X030795Y024013D01*
X030819Y023976D01*
X030795Y023940D01*
X030783Y023878D01*
X030795Y023816D01*
X030819Y023780D01*
X030795Y023743D01*
X030783Y023681D01*
X030795Y023619D01*
X030819Y023583D01*
X030795Y023546D01*
X030783Y023484D01*
X030795Y023422D01*
X030819Y023386D01*
X030795Y023349D01*
X030783Y023287D01*
X030795Y023225D01*
X030819Y023189D01*
X030795Y023153D01*
X030783Y023091D01*
X030795Y023028D01*
X030830Y022976D01*
X030883Y022941D01*
X030945Y022928D01*
X031654D01*
X031700Y022938D01*
X031885D01*
X032149Y022674D01*
X032139Y022650D01*
X032127Y022559D01*
X032139Y022468D01*
X032175Y022383D01*
X032231Y022309D01*
X032304Y022253D01*
X032389Y022218D01*
X032480Y022206D01*
X032572Y022218D01*
X032595Y022228D01*
X032739Y022084D01*
Y021964D01*
X032592D01*
Y021767D01*
X030960D01*
X030731Y021996D01*
X030733Y022008D01*
Y022717D01*
X030721Y022779D01*
X030686Y022831D01*
X030633Y022866D01*
X030571Y022879D01*
X030509Y022866D01*
X030472Y022842D01*
X030436Y022866D01*
X030424Y022869D01*
Y022783D01*
X030421Y022779D01*
X030409Y022717D01*
Y022362D01*
X030339D01*
Y022717D01*
X030327Y022779D01*
X030324Y022783D01*
Y022869D01*
X030312Y022866D01*
X030276Y022842D01*
X030239Y022866D01*
X030177Y022879D01*
X030115Y022866D01*
X030079Y022842D01*
X030042Y022866D01*
X029980Y022879D01*
X029918Y022866D01*
X029882Y022842D01*
X029846Y022866D01*
X029783Y022879D01*
X029721Y022866D01*
X029685Y022842D01*
X029649Y022866D01*
X029587Y022879D01*
X029525Y022866D01*
X029488Y022842D01*
X029452Y022866D01*
X029390Y022879D01*
X029328Y022866D01*
X029291Y022842D01*
X029255Y022866D01*
X029193Y022879D01*
X029131Y022866D01*
X029094Y022842D01*
X029058Y022866D01*
X028996Y022879D01*
X028934Y022866D01*
X028898Y022842D01*
X028861Y022866D01*
X028799Y022879D01*
X028737Y022866D01*
X028701Y022842D01*
X028664Y022866D01*
X028602Y022879D01*
X028540Y022866D01*
X028504Y022842D01*
X028468Y022866D01*
X028406Y022879D01*
X028343Y022866D01*
X028307Y022842D01*
X028271Y022866D01*
X028209Y022879D01*
X028147Y022866D01*
X028110Y022842D01*
X028074Y022866D01*
X028012Y022879D01*
X027950Y022866D01*
X027913Y022842D01*
X027877Y022866D01*
X027815Y022879D01*
X027753Y022866D01*
X027717Y022842D01*
X027680Y022866D01*
X027618Y022879D01*
X027556Y022866D01*
X027503Y022831D01*
X027468Y022779D01*
X027456Y022717D01*
Y022046D01*
X027138D01*
X027122Y022043D01*
X026678D01*
X026434Y022287D01*
X026443Y022310D01*
X026455Y022402D01*
X026443Y022493D01*
X026408Y022578D01*
X026352Y022651D01*
X026279Y022707D01*
X026194Y022743D01*
X026102Y022755D01*
X026011Y022743D01*
X025926Y022707D01*
X025853Y022651D01*
X025797Y022578D01*
X025761Y022493D01*
X025749Y022402D01*
X025761Y022310D01*
X025797Y022225D01*
X025853Y022152D01*
X025926Y022096D01*
X026011Y022061D01*
X026102Y022049D01*
X026194Y022061D01*
X026217Y022070D01*
X026359Y021928D01*
X026340Y021882D01*
X025469D01*
X025411Y021870D01*
X025361Y021837D01*
X024291Y020767D01*
X024061D01*
X024019Y020866D01*
X023939Y020971D01*
X023835Y021051D01*
X023803Y021064D01*
X023813Y021114D01*
X024083D01*
Y021807D01*
X024789Y022513D01*
X025153D01*
Y022660D01*
X025569D01*
X025628Y022672D01*
X025677Y022705D01*
X025910Y022938D01*
X026489D01*
X026535Y022928D01*
X027244D01*
X027306Y022941D01*
X027359Y022976D01*
X027394Y023028D01*
X027406Y023091D01*
X027405Y023096D01*
X027437Y023134D01*
X027854D01*
X027913Y023146D01*
X027962Y023179D01*
X028435Y023652D01*
X028468Y023701D01*
X028480Y023760D01*
Y025103D01*
X030752D01*
X030784Y025064D01*
D02*
G37*
G36*
X035630Y037953D02*
X038976D01*
Y035618D01*
X038937Y035574D01*
X036575D01*
X036536Y035567D01*
X036503Y035545D01*
X036481Y035511D01*
X036473Y035472D01*
Y034411D01*
X035963D01*
Y033961D01*
X032622D01*
X032545Y033951D01*
X032473Y033921D01*
X032424Y033884D01*
X031970D01*
Y033234D01*
X033070D01*
Y033362D01*
X035963D01*
Y032912D01*
X036473D01*
Y032288D01*
X036472Y032283D01*
Y031563D01*
X036325D01*
X036075Y031313D01*
Y030813D01*
X036325Y030563D01*
X036825D01*
X037075Y030813D01*
Y031313D01*
X037071Y031317D01*
Y031827D01*
X038937D01*
X038976Y031784D01*
Y025984D01*
Y020433D01*
Y015905D01*
X033858D01*
Y020433D01*
X033502Y020434D01*
X033482Y020480D01*
X033835Y020833D01*
X033879Y020898D01*
X033894Y020976D01*
Y021264D01*
X033992D01*
Y021461D01*
X034236D01*
Y021146D01*
X034365D01*
Y021102D01*
X034380Y021025D01*
X034424Y020959D01*
X034975Y020408D01*
X035041Y020364D01*
X035118Y020349D01*
X036181D01*
X036259Y020364D01*
X036324Y020408D01*
X036797Y020881D01*
X036840Y020946D01*
X036856Y021024D01*
Y025118D01*
Y025827D01*
X036840Y025904D01*
X036797Y025970D01*
X036403Y026364D01*
X036337Y026407D01*
X036260Y026423D01*
X035636D01*
Y026570D01*
X035566D01*
Y027578D01*
X035691D01*
Y027884D01*
X035038D01*
Y027578D01*
X035162D01*
Y026570D01*
X035036D01*
Y026270D01*
X035336D01*
Y026220D01*
X035386D01*
Y025870D01*
X035636D01*
Y026018D01*
X036176D01*
X036451Y025743D01*
Y025632D01*
X036437Y025625D01*
X036401Y025619D01*
X036352Y025683D01*
X036279Y025739D01*
X036194Y025774D01*
X036102Y025786D01*
X036011Y025774D01*
X035926Y025739D01*
X035853Y025683D01*
X035797Y025610D01*
X035787Y025586D01*
X035646D01*
Y025783D01*
X035046D01*
Y025083D01*
X035646D01*
Y025280D01*
X035787D01*
X035797Y025257D01*
X035853Y025183D01*
X035926Y025127D01*
X036011Y025092D01*
X036102Y025080D01*
X036194Y025092D01*
X036279Y025127D01*
X036352Y025183D01*
X036383Y025224D01*
X036432Y025218D01*
X036438Y025213D01*
X036438Y025189D01*
X036097Y024848D01*
X035646D01*
Y024996D01*
X035396D01*
Y024646D01*
X035346D01*
Y024596D01*
X035046D01*
Y024296D01*
X035176D01*
Y023908D01*
X035848D01*
Y024313D01*
X035665D01*
Y024443D01*
X036181D01*
X036259Y024459D01*
X036324Y024503D01*
X036405Y024583D01*
X036451Y024564D01*
Y021107D01*
X036097Y020753D01*
X035202D01*
X034853Y021102D01*
X034836Y021146D01*
X034836D01*
X034836Y021146D01*
Y021446D01*
X034536D01*
Y021546D01*
X034836D01*
Y021829D01*
X034903D01*
Y022233D01*
X034231D01*
Y021829D01*
X034236D01*
Y021767D01*
X033992D01*
Y021964D01*
X033742D01*
Y021614D01*
X033692D01*
Y021564D01*
X033392D01*
Y021530D01*
X033238Y021377D01*
X033192Y021396D01*
Y021964D01*
X033045D01*
Y022147D01*
X033033Y022206D01*
X033000Y022255D01*
X032812Y022444D01*
X032821Y022468D01*
X032833Y022559D01*
X032821Y022650D01*
X032786Y022736D01*
X032730Y022809D01*
X032657Y022865D01*
X032572Y022900D01*
X032480Y022912D01*
X032389Y022900D01*
X032365Y022890D01*
X032057Y023199D01*
X032007Y023232D01*
X031949Y023243D01*
X031846D01*
X031815Y023282D01*
X031816Y023287D01*
X031803Y023349D01*
X031779Y023386D01*
X031803Y023422D01*
X031816Y023484D01*
X031803Y023546D01*
X031779Y023583D01*
X031803Y023619D01*
X031816Y023681D01*
X031815Y023686D01*
X031846Y023725D01*
X032358D01*
X033120Y022963D01*
X033170Y022930D01*
X033228Y022918D01*
X035134D01*
X035267Y022784D01*
X035248Y022738D01*
X035176D01*
Y021846D01*
X035036D01*
Y021146D01*
X035636D01*
Y021829D01*
X035848D01*
Y022738D01*
X035665D01*
Y022756D01*
X035653Y022814D01*
X035620Y022864D01*
X035305Y023179D01*
X035255Y023212D01*
X035197Y023224D01*
X033292D01*
X032858Y023658D01*
X032869Y023689D01*
X032881Y023705D01*
X034231D01*
Y023404D01*
X034903D01*
Y024313D01*
X034846D01*
Y024996D01*
X034246D01*
Y024313D01*
X034231D01*
Y024011D01*
X033557D01*
X033532Y024061D01*
X033573Y024115D01*
X033598Y024174D01*
X033612Y024183D01*
X033809Y024380D01*
X033842Y024430D01*
X033854Y024488D01*
Y025134D01*
X034000Y025280D01*
X034246D01*
Y025083D01*
X034846D01*
Y025783D01*
X034689D01*
Y025870D01*
X034836D01*
Y026570D01*
X034236D01*
Y025870D01*
X034383D01*
Y025783D01*
X034246D01*
Y025586D01*
X033937D01*
X033878Y025574D01*
X033829Y025541D01*
X033593Y025305D01*
X033559Y025255D01*
X033548Y025197D01*
Y024581D01*
X033498Y024556D01*
X033444Y024597D01*
X033359Y024632D01*
X033268Y024644D01*
X033176Y024632D01*
X033091Y024597D01*
X033018Y024541D01*
X032962Y024468D01*
X032944Y024425D01*
X031846D01*
X031815Y024463D01*
X031816Y024469D01*
X031803Y024531D01*
X031779Y024567D01*
X031803Y024603D01*
X031816Y024665D01*
X031803Y024727D01*
X031779Y024764D01*
X031803Y024800D01*
X031816Y024862D01*
X031803Y024924D01*
X031779Y024961D01*
X031803Y024997D01*
X031816Y025059D01*
X031815Y025064D01*
X031846Y025103D01*
X032146D01*
X032204Y025115D01*
X032254Y025148D01*
X032395Y025289D01*
X032485D01*
Y025142D01*
X032785D01*
Y025442D01*
Y025742D01*
X032485D01*
Y025595D01*
X032331D01*
X032273Y025583D01*
X032223Y025550D01*
X032082Y025409D01*
X032029D01*
X032010Y025455D01*
X032497Y025942D01*
X033185D01*
Y026394D01*
X033586Y026795D01*
X033609Y026785D01*
X033701Y026773D01*
X033792Y026785D01*
X033877Y026820D01*
X033950Y026876D01*
X034007Y026949D01*
X034042Y027035D01*
X034054Y027126D01*
X034042Y027217D01*
X034007Y027302D01*
X033950Y027376D01*
X033877Y027432D01*
X033792Y027467D01*
X033701Y027479D01*
X033609Y027467D01*
X033524Y027432D01*
X033451Y027376D01*
X033395Y027302D01*
X033360Y027217D01*
X033348Y027126D01*
X033360Y027035D01*
X033370Y027011D01*
X033018Y026659D01*
X032954Y026666D01*
X032943Y026683D01*
X031998Y027628D01*
X031948Y027661D01*
X031890Y027673D01*
X030315D01*
X030256Y027661D01*
X030207Y027628D01*
X030069Y027490D01*
X030036Y027440D01*
X030024Y027382D01*
Y027319D01*
X029986Y027287D01*
X029980Y027288D01*
X029918Y027276D01*
X029882Y027252D01*
X029846Y027276D01*
X029783Y027288D01*
X029721Y027276D01*
X029685Y027252D01*
X029649Y027276D01*
X029587Y027288D01*
X029525Y027276D01*
X029488Y027252D01*
X029452Y027276D01*
X029390Y027288D01*
X029328Y027276D01*
X029291Y027252D01*
X029255Y027276D01*
X029193Y027288D01*
X029131Y027276D01*
X029094Y027252D01*
X029058Y027276D01*
X028996Y027288D01*
X028991Y027287D01*
X028952Y027319D01*
Y027476D01*
X029237Y027760D01*
X032631D01*
Y027563D01*
X033231D01*
Y028263D01*
X032631D01*
Y028066D01*
X029293D01*
X029274Y028113D01*
X029690Y028529D01*
X032613D01*
Y028332D01*
X033213D01*
Y029032D01*
X032613D01*
Y028835D01*
X029707D01*
X029688Y028881D01*
X030123Y029317D01*
X032613D01*
Y029119D01*
X033213D01*
Y029819D01*
X032613D01*
Y029622D01*
X030140D01*
X030121Y029669D01*
X030526Y030073D01*
X033307D01*
X033384Y030089D01*
X033450Y030133D01*
X033873Y030555D01*
X033917Y030621D01*
X033932Y030698D01*
Y030946D01*
X034055D01*
Y031343D01*
X034291D01*
X034301Y031320D01*
X034357Y031246D01*
X034430Y031190D01*
X034515Y031155D01*
X034556Y031150D01*
Y031496D01*
Y031842D01*
X034515Y031837D01*
X034430Y031802D01*
X034357Y031746D01*
X034301Y031673D01*
X034291Y031649D01*
X034055D01*
Y032046D01*
X033780D01*
Y031496D01*
X033730D01*
Y031446D01*
X033405D01*
Y030946D01*
X033527D01*
Y030782D01*
X033223Y030478D01*
X030512D01*
X030434Y030463D01*
X030369Y030419D01*
X030325Y030353D01*
X030313Y030293D01*
X030239Y030219D01*
X030193Y030238D01*
Y030594D01*
X029493D01*
Y029994D01*
X029555D01*
X029574Y029948D01*
X029228Y029602D01*
X028448D01*
X028429Y029648D01*
X028775Y029994D01*
X029208D01*
Y030594D01*
X028508D01*
Y030160D01*
X028131Y029783D01*
X027181D01*
X027133Y029773D01*
X027123Y029771D01*
X027073Y029738D01*
X026818Y029482D01*
X026772Y029501D01*
Y033251D01*
X026818Y033271D01*
X027367Y032721D01*
X027429Y032674D01*
X027459Y032661D01*
X027501Y032644D01*
X027579Y032634D01*
X028260D01*
Y032618D01*
X028278Y032525D01*
X028331Y032447D01*
X028409Y032394D01*
X028452Y032386D01*
Y032933D01*
X028552D01*
Y032386D01*
X028595Y032394D01*
X028673Y032447D01*
X028726Y032525D01*
X028726Y032528D01*
X028777D01*
X028778Y032525D01*
X028831Y032447D01*
X028849Y032434D01*
Y031624D01*
X028750Y031525D01*
X028717Y031476D01*
X028705Y031417D01*
Y031394D01*
X028508D01*
Y030794D01*
X029208D01*
Y031394D01*
X029116D01*
X029097Y031440D01*
X029110Y031453D01*
X029143Y031502D01*
X029155Y031561D01*
Y032434D01*
X029173Y032447D01*
X029226Y032525D01*
X029226Y032528D01*
X029277D01*
X029278Y032525D01*
X029331Y032447D01*
X029349Y032434D01*
Y031758D01*
X029361Y031699D01*
X029394Y031650D01*
X029604Y031440D01*
X029585Y031394D01*
X029493D01*
Y030794D01*
X030193D01*
Y031394D01*
X029995D01*
Y031417D01*
X029986Y031466D01*
X029984Y031476D01*
X029951Y031525D01*
X029655Y031821D01*
Y032434D01*
X029673Y032447D01*
X029726Y032525D01*
X029726Y032528D01*
X029777D01*
X029778Y032525D01*
X029831Y032447D01*
X029909Y032394D01*
X030002Y032376D01*
X030095Y032394D01*
X030173Y032447D01*
X030226Y032525D01*
X030244Y032618D01*
Y032731D01*
X030497D01*
Y032598D01*
X030509Y032540D01*
X030542Y032491D01*
X030591Y032458D01*
X030650Y032446D01*
X031240D01*
X031298Y032458D01*
X031348Y032491D01*
X031381Y032540D01*
X031392Y032598D01*
Y032992D01*
X031381Y033050D01*
X031348Y033100D01*
X031298Y033133D01*
X031240Y033144D01*
X030650D01*
X030605Y033135D01*
X030244D01*
Y033248D01*
X030226Y033341D01*
X030173Y033419D01*
X030130Y033448D01*
X030145Y033498D01*
X031102D01*
X031180Y033514D01*
X031245Y033558D01*
X031639Y033951D01*
X031683Y034017D01*
X031698Y034094D01*
Y034404D01*
X031806Y034512D01*
X031970D01*
Y034389D01*
X032470D01*
Y034714D01*
Y035039D01*
X031970D01*
Y034916D01*
X031722D01*
X031644Y034901D01*
X031579Y034857D01*
X031353Y034631D01*
X031309Y034566D01*
X031294Y034488D01*
Y034178D01*
X031019Y033903D01*
X028622D01*
X028545Y033888D01*
X028479Y033844D01*
X028359Y033724D01*
X028315Y033658D01*
X028300Y033581D01*
Y033373D01*
X028278Y033341D01*
X028260Y033248D01*
Y033232D01*
X027703D01*
X026747Y034188D01*
X026685Y034236D01*
X026634Y034257D01*
X026613Y034266D01*
X026535Y034276D01*
X025962D01*
X025762Y034476D01*
X025562D01*
Y033976D01*
X025462D01*
Y034476D01*
X025262D01*
X025012Y034226D01*
Y033984D01*
X022983D01*
X022918Y034034D01*
X022821Y034075D01*
X022767Y034082D01*
Y033685D01*
X022717D01*
Y033635D01*
X022295D01*
X022283Y033622D01*
X020866D01*
Y037953D01*
X024409D01*
Y041299D01*
X035630D01*
Y037953D01*
D02*
G37*
G36*
X029266Y029246D02*
X029149Y029129D01*
X028653D01*
X028594Y029118D01*
X028545Y029085D01*
X027999Y028539D01*
X027915D01*
Y028239D01*
X028165D01*
Y028273D01*
X028716Y028823D01*
X029132D01*
X029151Y028777D01*
X028297Y027923D01*
X028264Y027873D01*
X028253Y027815D01*
Y027319D01*
X028214Y027287D01*
X028209Y027288D01*
X028147Y027276D01*
X028110Y027252D01*
X028074Y027276D01*
X028012Y027288D01*
X028007Y027287D01*
X027968Y027319D01*
Y027839D01*
X028165D01*
Y028139D01*
X027565D01*
Y027839D01*
X027662D01*
Y027541D01*
X027616Y027522D01*
X027345Y027793D01*
X027364Y027839D01*
X027365D01*
Y028539D01*
X027364D01*
X027345Y028585D01*
X027566Y028807D01*
X027585Y028805D01*
X027658Y028749D01*
X027743Y028714D01*
X027835Y028702D01*
X027926Y028714D01*
X028011Y028749D01*
X028084Y028805D01*
X028140Y028879D01*
X028176Y028964D01*
X028188Y029055D01*
X028176Y029146D01*
X028140Y029232D01*
X028125Y029251D01*
X028148Y029296D01*
X029245D01*
X029266Y029246D01*
D02*
G37*
G36*
X025319Y025766D02*
Y023778D01*
X025269Y023751D01*
X025264Y023755D01*
X025206Y023766D01*
X025153D01*
Y023913D01*
X024853D01*
Y023613D01*
X024803D01*
Y023563D01*
X024453D01*
Y023549D01*
X024334Y023431D01*
X024028D01*
X024011Y023481D01*
X024047Y023508D01*
X024103Y023581D01*
X024138Y023666D01*
X024150Y023758D01*
X024138Y023849D01*
X024103Y023934D01*
X024047Y024007D01*
X023985Y024055D01*
X023997Y024104D01*
X023997Y024105D01*
X024369D01*
Y024555D01*
X024369Y024604D01*
Y024604D01*
Y024605D01*
X024369Y024654D01*
Y025055D01*
X024369Y025080D01*
X024408Y025121D01*
X024412Y025123D01*
X024488D01*
X024497Y025099D01*
X024554Y025026D01*
X024627Y024970D01*
X024712Y024935D01*
X024803Y024923D01*
X024895Y024935D01*
X024980Y024970D01*
X025053Y025026D01*
X025109Y025099D01*
X025144Y025184D01*
X025156Y025276D01*
X025144Y025367D01*
X025109Y025452D01*
X025053Y025525D01*
X025021Y025549D01*
X025035Y025602D01*
X025052Y025604D01*
X025137Y025639D01*
X025210Y025695D01*
X025266Y025768D01*
X025269Y025776D01*
X025319Y025766D01*
D02*
G37*
%LPC*%
G36*
X033185Y025392D02*
X032885D01*
Y025142D01*
X033185D01*
Y025392D01*
D02*
G37*
G36*
X035296Y024996D02*
X035046D01*
Y024696D01*
X035296D01*
Y024996D01*
D02*
G37*
G36*
X034805Y028290D02*
X034152D01*
Y028066D01*
X034031D01*
Y028263D01*
X033431D01*
Y027563D01*
X034031D01*
Y027760D01*
X034152D01*
Y027578D01*
X034805D01*
Y028290D01*
D02*
G37*
G36*
X027815Y028539D02*
X027565D01*
Y028239D01*
X027815D01*
Y028539D01*
D02*
G37*
G36*
X035691Y028671D02*
X035038D01*
Y028366D01*
X035162D01*
Y028290D01*
X035038D01*
Y027984D01*
X035691D01*
Y028290D01*
X035566D01*
Y028366D01*
X035691D01*
Y028671D01*
D02*
G37*
G36*
X033185Y025742D02*
X032885D01*
Y025492D01*
X033185D01*
Y025742D01*
D02*
G37*
G36*
X035286Y026170D02*
X035036D01*
Y025870D01*
X035286D01*
Y026170D01*
D02*
G37*
G36*
X027184Y020789D02*
X027143Y020784D01*
X027058Y020749D01*
X026985Y020693D01*
X026929Y020619D01*
X026893Y020534D01*
X026888Y020493D01*
X027184D01*
Y020789D01*
D02*
G37*
G36*
X033642Y021964D02*
X033392D01*
Y021664D01*
X033642D01*
Y021964D01*
D02*
G37*
G36*
X025862Y018891D02*
X025562D01*
Y018641D01*
X025862D01*
Y018891D01*
D02*
G37*
G36*
X023533Y018564D02*
X023085D01*
X023096Y018484D01*
X023146Y018362D01*
X023226Y018258D01*
X023331Y018177D01*
X023452Y018127D01*
X023533Y018116D01*
Y018564D01*
D02*
G37*
G36*
X025862Y018541D02*
X025562D01*
Y018291D01*
X025862D01*
Y018541D01*
D02*
G37*
G36*
X035848Y023808D02*
X035562D01*
Y023404D01*
X035848D01*
Y023808D01*
D02*
G37*
G36*
X024753Y023913D02*
X024453D01*
Y023663D01*
X024753D01*
Y023913D01*
D02*
G37*
G36*
X035462Y023808D02*
X035176D01*
Y023404D01*
X035462D01*
Y023808D01*
D02*
G37*
G36*
X034517Y022738D02*
X034231D01*
Y022333D01*
X034517D01*
Y022738D01*
D02*
G37*
G36*
X034903D02*
X034617D01*
Y022333D01*
X034903D01*
Y022738D01*
D02*
G37*
G36*
X034556Y036134D02*
X034515Y036128D01*
X034430Y036093D01*
X034357Y036037D01*
X034301Y035964D01*
X034265Y035879D01*
X034260Y035837D01*
X034556D01*
Y036134D01*
D02*
G37*
G36*
X034656D02*
Y035837D01*
X034953D01*
X034947Y035879D01*
X034912Y035964D01*
X034856Y036037D01*
X034783Y036093D01*
X034698Y036128D01*
X034656Y036134D01*
D02*
G37*
G36*
X034953Y035737D02*
X034656D01*
Y035441D01*
X034698Y035446D01*
X034783Y035482D01*
X034856Y035538D01*
X034912Y035611D01*
X034947Y035696D01*
X034953Y035737D01*
D02*
G37*
G36*
X025512Y035718D02*
X025407Y035705D01*
X025310Y035664D01*
X025227Y035600D01*
X025162Y035517D01*
X025122Y035419D01*
X025108Y035315D01*
X025122Y035211D01*
X025162Y035113D01*
X025227Y035030D01*
X025310Y034966D01*
X025407Y034925D01*
X025512Y034911D01*
X025616Y034925D01*
X025714Y034966D01*
X025797Y035030D01*
X025861Y035113D01*
X025902Y035211D01*
X025915Y035315D01*
X025902Y035419D01*
X025861Y035517D01*
X025797Y035600D01*
X025714Y035664D01*
X025616Y035705D01*
X025512Y035718D01*
D02*
G37*
G36*
X034556Y035737D02*
X034260D01*
X034261Y035728D01*
X034129Y035596D01*
X034085Y035530D01*
X034069Y035453D01*
Y034916D01*
X033070D01*
Y035039D01*
X032570D01*
Y034714D01*
Y034389D01*
X033070D01*
Y034512D01*
X033640D01*
Y034270D01*
X034222D01*
Y034567D01*
X034272D01*
Y034617D01*
X034903D01*
Y034864D01*
X034474D01*
Y035369D01*
X034547Y035442D01*
X034556Y035441D01*
Y035737D01*
D02*
G37*
G36*
X028663Y041202D02*
X027676D01*
Y040018D01*
X028663D01*
Y041202D01*
D02*
G37*
G36*
X032167D02*
X031180D01*
Y040018D01*
X032167D01*
Y041202D01*
D02*
G37*
G36*
X029055Y039709D02*
X028983Y039699D01*
X028915Y039671D01*
X028857Y039627D01*
X028813Y039569D01*
X028785Y039501D01*
X028776Y039429D01*
X028785Y039357D01*
X028810Y039296D01*
X028803Y039271D01*
X028786Y039242D01*
X028772Y039239D01*
X028651Y039360D01*
X028602Y039393D01*
X028543Y039405D01*
X027362D01*
X027304Y039393D01*
X027254Y039360D01*
X026782Y038888D01*
X026748Y038838D01*
X026737Y038780D01*
Y037762D01*
X026540D01*
Y037162D01*
X027240D01*
Y037762D01*
X027043D01*
Y038716D01*
X027426Y039099D01*
X028448D01*
X028456Y039087D01*
X028430Y039037D01*
X027676D01*
Y037853D01*
X028663D01*
Y038871D01*
X028713Y038908D01*
X028740Y038902D01*
X029093D01*
Y038386D01*
X029089Y038366D01*
Y037879D01*
X028478Y037268D01*
X028417Y037276D01*
X028287Y037259D01*
X028165Y037208D01*
X028061Y037128D01*
X027981Y037024D01*
X027930Y036902D01*
X027925Y036865D01*
X027240D01*
Y036962D01*
X026540D01*
Y036362D01*
X027240D01*
Y036460D01*
X028026D01*
X028061Y036415D01*
X028165Y036335D01*
X028287Y036285D01*
X028300Y036283D01*
Y035381D01*
X028278Y035349D01*
X028260Y035256D01*
Y034626D01*
X028278Y034533D01*
X028331Y034455D01*
X028409Y034402D01*
X028502Y034384D01*
X028595Y034402D01*
X028673Y034455D01*
X028726Y034533D01*
X028726Y034536D01*
X028777D01*
X028778Y034533D01*
X028831Y034455D01*
X028909Y034402D01*
X029002Y034384D01*
X029095Y034402D01*
X029173Y034455D01*
X029226Y034533D01*
X029226Y034536D01*
X029277D01*
X029278Y034533D01*
X029331Y034455D01*
X029409Y034402D01*
X029502Y034384D01*
X029595Y034402D01*
X029673Y034455D01*
X029726Y034533D01*
X029726Y034536D01*
X029777D01*
X029778Y034533D01*
X029831Y034455D01*
X029909Y034402D01*
X030002Y034384D01*
X030095Y034402D01*
X030173Y034455D01*
X030226Y034533D01*
X030244Y034626D01*
Y035116D01*
X031400Y036272D01*
X031917D01*
Y037272D01*
X031203D01*
X030753Y037722D01*
Y038366D01*
X030750Y038386D01*
Y038958D01*
X029755D01*
X029748Y038996D01*
X029714Y039045D01*
X029596Y039163D01*
X029547Y039196D01*
X029488Y039208D01*
X029298D01*
X029273Y039258D01*
X029297Y039289D01*
X029325Y039357D01*
X029335Y039429D01*
X029325Y039501D01*
X029297Y039569D01*
X029253Y039627D01*
X029195Y039671D01*
X029127Y039699D01*
X029055Y039709D01*
D02*
G37*
G36*
X032167Y039037D02*
X031180D01*
Y037853D01*
X032167D01*
Y039037D01*
D02*
G37*
G36*
X030787Y039709D02*
X030715Y039699D01*
X030648Y039671D01*
X030590Y039627D01*
X030545Y039569D01*
X030517Y039501D01*
X030508Y039429D01*
X030517Y039357D01*
X030545Y039289D01*
X030590Y039231D01*
X030648Y039187D01*
X030715Y039159D01*
X030787Y039150D01*
X030860Y039159D01*
X030927Y039187D01*
X030985Y039231D01*
X031030Y039289D01*
X031057Y039357D01*
X031067Y039429D01*
X031057Y039501D01*
X031030Y039569D01*
X030985Y039627D01*
X030927Y039671D01*
X030860Y039699D01*
X030787Y039709D01*
D02*
G37*
G36*
X023117Y035085D02*
X022317D01*
Y034285D01*
X023117D01*
Y035085D01*
D02*
G37*
G36*
X034805Y029865D02*
X034152D01*
Y029622D01*
X034013D01*
Y029819D01*
X033413D01*
Y029119D01*
X034013D01*
Y029317D01*
X034152D01*
Y029153D01*
X034805D01*
Y029865D01*
D02*
G37*
G36*
X031240Y032121D02*
X030650D01*
X030591Y032109D01*
X030542Y032076D01*
X030509Y032027D01*
X030497Y031969D01*
Y031575D01*
X030509Y031517D01*
X030542Y031467D01*
X030591Y031434D01*
X030650Y031423D01*
X031240D01*
X031298Y031434D01*
X031348Y031467D01*
X031381Y031517D01*
X031391Y031569D01*
X031514D01*
Y031357D01*
X032108D01*
Y032108D01*
X031514D01*
Y031974D01*
X031391D01*
X031381Y032027D01*
X031348Y032076D01*
X031298Y032109D01*
X031240Y032121D01*
D02*
G37*
G36*
X034953Y031446D02*
X034656D01*
Y031150D01*
X034665Y031151D01*
X035162Y030654D01*
Y029865D01*
X035038D01*
Y029559D01*
X035691D01*
Y029865D01*
X035566D01*
Y030738D01*
X035551Y030816D01*
X035507Y030881D01*
X034952Y031437D01*
X034953Y031446D01*
D02*
G37*
G36*
X035691Y029459D02*
X035038D01*
Y029153D01*
X035162D01*
Y029077D01*
X035038D01*
Y028771D01*
X035691D01*
Y029077D01*
X035566D01*
Y029153D01*
X035691D01*
Y029459D01*
D02*
G37*
G36*
X034805Y029077D02*
X034152D01*
Y028835D01*
X034013D01*
Y029032D01*
X033413D01*
Y028332D01*
X034013D01*
Y028529D01*
X034152D01*
Y028366D01*
X034805D01*
Y029077D01*
D02*
G37*
G36*
X022667Y034082D02*
X022612Y034075D01*
X022515Y034034D01*
X022431Y033970D01*
X022367Y033887D01*
X022327Y033789D01*
X022320Y033735D01*
X022667D01*
Y034082D01*
D02*
G37*
G36*
X034903Y034517D02*
X034322D01*
Y034270D01*
X034903D01*
Y034517D01*
D02*
G37*
G36*
X032108Y033131D02*
X031514D01*
Y032380D01*
X032108D01*
Y032554D01*
X032312D01*
X032349Y032506D01*
X032396Y032470D01*
Y032046D01*
X032250D01*
Y030946D01*
X032900D01*
Y032046D01*
X032801D01*
Y032470D01*
X032848Y032506D01*
X032884Y032554D01*
X033640D01*
Y032459D01*
X034903D01*
Y033053D01*
X033640D01*
Y032958D01*
X032884D01*
X032848Y033006D01*
X032775Y033062D01*
X032690Y033097D01*
X032598Y033109D01*
X032507Y033097D01*
X032422Y033062D01*
X032349Y033006D01*
X032312Y032958D01*
X032108D01*
Y033131D01*
D02*
G37*
G36*
X033680Y032046D02*
X033405D01*
Y031546D01*
X033680D01*
Y032046D01*
D02*
G37*
G36*
X034656Y031842D02*
Y031546D01*
X034953D01*
X034947Y031587D01*
X034912Y031673D01*
X034856Y031746D01*
X034783Y031802D01*
X034698Y031837D01*
X034656Y031842D01*
D02*
G37*
%LPD*%
D10*
X025551Y031643D02*
D03*
Y030488D02*
D03*
X032520Y034714D02*
D03*
Y033559D02*
D03*
D11*
X033730Y031496D02*
D03*
X032575D02*
D03*
D12*
X035512Y023858D02*
D03*
Y022283D02*
D03*
X034567Y023858D02*
D03*
Y022283D02*
D03*
D13*
X035346Y024646D02*
D03*
X034546D02*
D03*
X034536Y021496D02*
D03*
X035336D02*
D03*
X028994Y015512D02*
D03*
X029794D02*
D03*
X032905Y020000D02*
D03*
X032105D02*
D03*
X035346Y025433D02*
D03*
X034546D02*
D03*
X034536Y026220D02*
D03*
X035336D02*
D03*
X027865Y028189D02*
D03*
X027065D02*
D03*
X033731Y027913D02*
D03*
X032931D02*
D03*
X033713Y028682D02*
D03*
X032913D02*
D03*
X033713Y029469D02*
D03*
X032913D02*
D03*
X033692Y021614D02*
D03*
X032892D02*
D03*
D14*
X030002Y034941D02*
D03*
X029502D02*
D03*
X029002D02*
D03*
X028502D02*
D03*
X030002Y032933D02*
D03*
X029502D02*
D03*
X029002D02*
D03*
X028502D02*
D03*
D15*
X026575Y015678D02*
D03*
Y016478D02*
D03*
X032835Y025442D02*
D03*
Y026242D02*
D03*
X025512Y018591D02*
D03*
Y019391D02*
D03*
X028858Y030294D02*
D03*
Y031094D02*
D03*
X029843Y030294D02*
D03*
Y031094D02*
D03*
X026890Y036662D02*
D03*
Y037462D02*
D03*
X032638Y016409D02*
D03*
Y015609D02*
D03*
X024803Y023613D02*
D03*
Y022813D02*
D03*
D16*
X027988Y016880D02*
D03*
X028988D02*
D03*
X029988D02*
D03*
X030988D02*
D03*
X027988Y020443D02*
D03*
X028988D02*
D03*
X029988D02*
D03*
X030988D02*
D03*
D17*
X031299Y023091D02*
D03*
Y023287D02*
D03*
Y023484D02*
D03*
Y023681D02*
D03*
Y023878D02*
D03*
Y024075D02*
D03*
Y024272D02*
D03*
Y024469D02*
D03*
Y024665D02*
D03*
Y024862D02*
D03*
Y025059D02*
D03*
Y025256D02*
D03*
Y025453D02*
D03*
Y025650D02*
D03*
Y025846D02*
D03*
Y026043D02*
D03*
X026890D02*
D03*
Y025846D02*
D03*
Y025650D02*
D03*
Y025453D02*
D03*
Y025256D02*
D03*
Y025059D02*
D03*
Y024862D02*
D03*
Y024665D02*
D03*
Y024469D02*
D03*
Y024272D02*
D03*
Y024075D02*
D03*
Y023878D02*
D03*
Y023681D02*
D03*
Y023484D02*
D03*
Y023287D02*
D03*
Y023091D02*
D03*
D18*
X030571Y026772D02*
D03*
X030374D02*
D03*
X030177D02*
D03*
X029980D02*
D03*
X029783D02*
D03*
X029587D02*
D03*
X029390D02*
D03*
X029193D02*
D03*
X028996D02*
D03*
X028799D02*
D03*
X028602D02*
D03*
X028406D02*
D03*
X028209D02*
D03*
X028012D02*
D03*
X027815D02*
D03*
X027618D02*
D03*
Y022362D02*
D03*
X027815D02*
D03*
X028012D02*
D03*
X028209D02*
D03*
X028406D02*
D03*
X028602D02*
D03*
X028799D02*
D03*
X028996D02*
D03*
X029193D02*
D03*
X029390D02*
D03*
X029587D02*
D03*
X029783D02*
D03*
X029980D02*
D03*
X030177D02*
D03*
X030374D02*
D03*
X030571D02*
D03*
D19*
X022261Y026354D02*
D03*
Y025854D02*
D03*
Y025354D02*
D03*
Y024854D02*
D03*
Y024354D02*
D03*
X023797Y026354D02*
D03*
Y025854D02*
D03*
Y025354D02*
D03*
Y024854D02*
D03*
Y024354D02*
D03*
D20*
X029291Y038366D02*
D03*
X029606D02*
D03*
X029921D02*
D03*
X030236D02*
D03*
X030551D02*
D03*
D21*
X028169Y038445D02*
D03*
Y040610D02*
D03*
X031673D02*
D03*
Y038445D02*
D03*
D22*
X030945Y032795D02*
D03*
Y031772D02*
D03*
D23*
X035364Y027934D02*
D03*
X034478D02*
D03*
Y029509D02*
D03*
X035364D02*
D03*
X034478Y028721D02*
D03*
X035364D02*
D03*
D24*
X031811Y031732D02*
D03*
Y032756D02*
D03*
D25*
X036594Y033661D02*
D03*
D26*
X034272Y032756D02*
D03*
Y033661D02*
D03*
Y034567D02*
D03*
D27*
X028791Y014331D02*
X028988Y014528D01*
Y016880D01*
X029988Y015706D02*
Y016880D01*
X029337Y013213D02*
Y015054D01*
X029794Y015512D01*
X029988Y015706D01*
D28*
X028246Y013014D02*
Y013213D01*
Y013014D02*
X028701Y012559D01*
X029685D01*
X029882Y012756D01*
Y014331D01*
X030667Y012362D02*
X031518Y013213D01*
X028110Y012362D02*
X030667D01*
X027701Y012772D02*
X028110Y012362D01*
X027701Y012772D02*
Y014331D01*
X032638Y013543D02*
Y015609D01*
X032307Y013213D02*
X032638Y013543D01*
X031518Y013213D02*
X032307D01*
X029980Y020451D02*
Y022362D01*
Y020451D02*
X029988Y020443D01*
X030177Y021516D02*
Y022362D01*
Y021516D02*
X030374Y021319D01*
X028988Y020819D02*
X029488Y021319D01*
X028988Y020443D02*
Y020819D01*
X030374Y021829D02*
Y022362D01*
Y021829D02*
X030786Y021417D01*
X030571Y021940D02*
Y022362D01*
Y021940D02*
X030896Y021614D01*
X029783Y021811D02*
Y022362D01*
X029685Y021713D02*
X029783Y021811D01*
X029291Y021713D02*
X029685D01*
X028799Y021676D02*
Y022362D01*
X028209Y021837D02*
Y022362D01*
X027008Y021220D02*
X028799D01*
X029291Y021713D01*
X028504Y021381D02*
X028799Y021676D01*
X026460Y021381D02*
X028504D01*
X025912Y021542D02*
X027913D01*
X028209Y021837D01*
X028012Y021880D02*
Y022362D01*
X027865Y021732D02*
X028012Y021880D01*
X027205Y021732D02*
X027865D01*
X027618Y021991D02*
Y022362D01*
X027520Y021893D02*
X027618Y021991D01*
X027138Y021893D02*
X027520D01*
X027135Y021890D02*
X027138Y021893D01*
X026575Y020787D02*
X027008Y021220D01*
X026575Y019504D02*
Y020787D01*
X025512Y019391D02*
X026462D01*
X026575Y019504D01*
X027234Y020443D02*
X027988D01*
X023583Y018614D02*
X025489D01*
X023583Y019614D02*
X023984D01*
X023583Y020614D02*
X024354D01*
X025469Y021729D01*
X027202D01*
X023984Y019614D02*
X025912Y021542D01*
X026102Y021024D02*
X026460Y021381D01*
X024331Y025354D02*
X024409Y025276D01*
X023797Y025354D02*
X024331D01*
X026614Y021890D02*
X027135D01*
X026102Y022402D02*
X026614Y021890D01*
X023797Y025854D02*
X023864Y025787D01*
X023797Y023758D02*
Y024354D01*
X033248Y024272D02*
X033268Y024291D01*
X031299Y024272D02*
X033248D01*
X030896Y021614D02*
X032892D01*
X030786Y021417D02*
X032165D01*
X032480Y021102D01*
X033180D01*
X033692Y021614D01*
X031299Y024075D02*
X032657D01*
X032874Y023858D01*
X034567D01*
X031299Y023878D02*
X032421D01*
X033228Y023071D01*
X035197D01*
X035512Y022756D01*
Y022283D02*
Y022756D01*
X034567Y021527D02*
Y022283D01*
X035336Y021496D02*
Y022108D01*
X035512Y022283D01*
Y023858D02*
Y024480D01*
X035346Y024646D02*
X035512Y024480D01*
X034546Y023880D02*
Y024646D01*
Y023880D02*
X034567Y023858D01*
X031299Y023091D02*
X031949D01*
X032892Y021614D02*
Y022147D01*
X031949Y023091D02*
X032480Y022559D01*
X032892Y022147D01*
X033268Y024291D02*
X033504D01*
X033701Y024488D01*
Y025197D01*
X033937Y025433D01*
X034546D01*
X034536Y025443D02*
X034546Y025433D01*
X034536Y025443D02*
Y026220D01*
X031299Y025453D02*
X031791D01*
X032580Y026242D01*
X032835D01*
X030177Y026772D02*
Y027382D01*
X030315Y027520D01*
X031890D01*
X032835Y026575D01*
X029173Y027913D02*
X032931D01*
X028799Y027539D02*
X029173Y027913D01*
X028799Y026772D02*
Y027539D01*
X028602Y026772D02*
Y027657D01*
X029627Y028682D01*
X032913D01*
X028406Y026772D02*
Y027815D01*
X030060Y029469D01*
X033731Y027913D02*
X034458D01*
X033713Y028682D02*
X034439D01*
X034478Y028721D01*
X033713Y029469D02*
X034439D01*
X034478Y029509D01*
X023797Y026354D02*
X025181D01*
X025472Y026063D01*
Y023740D02*
Y026063D01*
Y023740D02*
X025728Y023484D01*
X026890D01*
X027065Y027856D02*
Y028189D01*
Y027856D02*
X027618Y027303D01*
Y026772D02*
Y027303D01*
X029793Y029950D02*
Y030244D01*
X029843Y030294D01*
X025824Y024012D02*
X026154Y023681D01*
X026890D01*
X025824Y024012D02*
Y028272D01*
X026024Y024094D02*
X026240Y023878D01*
X026890D01*
X026024Y024094D02*
Y028189D01*
X029002Y031561D02*
Y032933D01*
X028858Y031417D02*
X029002Y031561D01*
X028858Y031094D02*
Y031417D01*
X029502Y031758D02*
Y032933D01*
Y031758D02*
X029843Y031417D01*
Y031094D02*
Y031417D01*
X029502Y034941D02*
Y035486D01*
X029882Y035866D01*
X030000D01*
X030417Y036283D01*
Y036772D01*
X029417Y036268D02*
Y036772D01*
X029002Y035852D02*
X029417Y036268D01*
X029002Y034941D02*
Y035852D01*
X028417Y036772D02*
X028502Y036687D01*
X030002Y034941D02*
Y035159D01*
X031417Y036575D02*
Y036772D01*
X028308Y036662D02*
X028417Y036772D01*
X030236Y036953D02*
Y038366D01*
Y036953D02*
X030417Y036772D01*
X029921Y037276D02*
Y038366D01*
X029417Y036772D02*
X029921Y037276D01*
X026890Y037462D02*
Y038780D01*
X027362Y039252D01*
X028543D01*
X028740Y039055D01*
X029488D01*
X029606Y038937D01*
Y038366D02*
Y038937D01*
X035346Y025433D02*
X036102D01*
X032835Y026242D02*
Y026260D01*
X033701Y027126D01*
X032835Y026260D02*
Y026575D01*
X030060Y029469D02*
X032913D01*
X027065Y028189D02*
Y028522D01*
X022261Y025354D02*
X022874D01*
X022953Y025276D01*
Y024331D02*
Y025276D01*
X022285Y024331D02*
X022953D01*
X022285Y024172D02*
Y024331D01*
X025846Y023091D02*
X026890D01*
X025569Y022813D02*
X025846Y023091D01*
X024803Y022813D02*
X025569D01*
X025531Y023287D02*
X026890D01*
X025206Y023613D02*
X025531Y023287D01*
X024803Y023613D02*
X025206D01*
X027854Y023287D02*
X028327Y023760D01*
X026890Y023287D02*
X027854D01*
X035336Y026220D02*
X035364Y026248D01*
X034480Y021614D02*
X034567Y021527D01*
X033692Y021614D02*
X034480D01*
X028327Y023760D02*
Y025256D01*
X028246Y013213D02*
Y015297D01*
X027988Y015555D02*
X028246Y015297D01*
X027988Y015555D02*
Y015945D01*
X027815Y025768D02*
X028327Y025256D01*
X027815Y025768D02*
Y026772D01*
Y028139D01*
X027865Y028189D01*
X028653Y028976D01*
X029213D01*
X030512Y030276D01*
X033730Y031496D02*
X034606D01*
X031299Y025256D02*
X032146D01*
X032331Y025442D01*
X032835D01*
X023864Y025787D02*
X024803D01*
X024823Y025807D01*
X024409Y025276D02*
X024803D01*
X025824Y028272D02*
X027181Y029630D01*
X026024Y028189D02*
X027283Y029449D01*
X029291D01*
X029793Y029950D01*
X027181Y029630D02*
X028194D01*
X028858Y030294D01*
X027598Y029055D02*
X027835D01*
X027065Y028522D02*
X027598Y029055D01*
X028327Y025256D02*
X031299D01*
D29*
X028502Y034941D02*
Y036687D01*
X030002Y035159D02*
X031417Y036575D01*
X026890Y036662D02*
X028308D01*
X030551Y037638D02*
Y038366D01*
Y037638D02*
X031417Y036772D01*
X029291Y037795D02*
Y038366D01*
X028417Y036921D02*
X029291Y037795D01*
X028417Y036772D02*
Y036921D01*
X030002Y032933D02*
X030807D01*
X030945Y032795D01*
Y031772D02*
X031772D01*
X031811Y032756D02*
X032598D01*
X034272D01*
X032520Y033559D02*
X032622Y033661D01*
X032520Y034714D02*
X034125D01*
X034272Y034567D01*
X028502Y032933D02*
Y033581D01*
X028622Y033701D01*
X031102D01*
X031496Y034094D01*
Y034488D01*
X031722Y034714D01*
X032520D01*
X032598Y031520D02*
Y032756D01*
X032575Y031496D02*
X032598Y031520D01*
X034272Y035453D02*
X034606Y035787D01*
X034272Y034567D02*
Y035453D01*
X035346Y024646D02*
X036181D01*
X036654Y025118D01*
X032087Y020018D02*
Y020827D01*
X030988Y020443D02*
X031662D01*
X032087Y020018D01*
X032105Y020000D01*
X032905D02*
Y020188D01*
X033692Y020976D01*
Y021614D01*
X022261Y026354D02*
Y026632D01*
Y025354D02*
Y025854D01*
X022285Y023857D02*
Y024172D01*
Y023857D02*
X022913Y023228D01*
X024418D01*
X024803Y023613D01*
X023031Y027480D02*
X023110D01*
X022261Y026632D02*
X023110Y027480D01*
X023583Y021614D02*
X023604D01*
X024803Y022813D01*
X022992Y021614D02*
X023583D01*
X022638Y021260D02*
X022992Y021614D01*
X022638Y017520D02*
Y021260D01*
Y017520D02*
X022874Y017283D01*
X025551D01*
X026575Y018307D01*
Y018504D01*
X034567Y021102D02*
Y021527D01*
Y021102D02*
X035118Y020551D01*
X036181D01*
X036654Y021024D01*
Y025118D01*
Y025827D01*
X036260Y026220D02*
X036654Y025827D01*
X035336Y026220D02*
X036260D01*
X032905Y019007D02*
Y020000D01*
X030512Y030276D02*
X033307D01*
X033730Y030698D01*
Y031496D01*
X034606D02*
X035364Y030738D01*
Y029509D02*
Y030738D01*
Y028721D02*
Y029509D01*
Y027934D02*
Y028721D01*
X032835Y025442D02*
X032961D01*
X035364Y026248D02*
Y027934D01*
D30*
X032622Y033661D02*
X034272D01*
X036594D01*
X036929Y033327D01*
X027579Y032933D02*
X028502D01*
X026535Y033976D02*
X027579Y032933D01*
X025512Y033976D02*
X026535D01*
X025220Y033685D02*
X025512Y033976D01*
X022717Y033685D02*
X025220D01*
X025512Y031682D02*
Y032638D01*
Y031682D02*
X025551Y031643D01*
X025512Y029488D02*
Y030449D01*
X025551Y030488D01*
X036772Y031260D02*
Y032283D01*
X036575Y031063D02*
X036772Y031260D01*
D31*
X021567Y031685D02*
X022717D01*
X020866Y016890D02*
Y030984D01*
X021567Y031685D01*
X021693Y029685D02*
X022717D01*
X021339Y017598D02*
Y029331D01*
X021693Y029685D01*
X021339Y017598D02*
X022362Y016575D01*
X023622D01*
X032441Y016606D02*
Y017480D01*
Y016606D02*
X032638Y016409D01*
X023622Y016575D02*
X026478D01*
X026575Y016478D01*
X020866Y016890D02*
X022126Y015630D01*
X026527D01*
X026575Y015678D01*
X027721D01*
X027988Y015945D01*
Y016880D01*
X030988D02*
X031459Y016409D01*
X032638D01*
D32*
X037756Y033701D02*
D03*
D33*
X021576Y012646D02*
D03*
X022676D02*
D03*
X023226Y011693D02*
D03*
X022676Y010740D02*
D03*
X021576D02*
D03*
X021026Y011693D02*
D03*
X037088Y012646D02*
D03*
X038188D02*
D03*
X038738Y011693D02*
D03*
X038188Y010740D02*
D03*
X037088D02*
D03*
X036538Y011693D02*
D03*
X037088Y040756D02*
D03*
X038188D02*
D03*
X038738Y039803D02*
D03*
X038188Y038851D02*
D03*
X037088D02*
D03*
X036538Y039803D02*
D03*
X021576Y040756D02*
D03*
X022676D02*
D03*
X023226Y039803D02*
D03*
X022676Y038851D02*
D03*
X021576D02*
D03*
X021026Y039803D02*
D03*
X022717Y033685D02*
D03*
Y031685D02*
D03*
Y029685D02*
D03*
X025512Y035315D02*
D03*
D34*
X022126Y011693D02*
D03*
X037638D02*
D03*
Y039803D02*
D03*
X022126D02*
D03*
D35*
X025512Y029488D02*
D03*
X036575Y031063D02*
D03*
D36*
X028417Y036772D02*
D03*
X029417D02*
D03*
X030417D02*
D03*
X023583Y018614D02*
D03*
Y019614D02*
D03*
Y020614D02*
D03*
D37*
X031417Y036772D02*
D03*
D38*
X023583Y021614D02*
D03*
D39*
X022717Y034685D02*
D03*
D40*
X025512Y033976D02*
D03*
Y032638D02*
D03*
D41*
X026575Y019504D02*
D03*
D42*
Y018504D02*
D03*
D43*
X030787Y039429D02*
D03*
X029055D02*
D03*
D44*
X032063Y014331D02*
D03*
X030972D02*
D03*
X029882D02*
D03*
X028791D02*
D03*
X031518Y013213D02*
D03*
X030427D02*
D03*
X029337D02*
D03*
X028246D02*
D03*
D45*
X027701Y014331D02*
D03*
D46*
X034803Y013772D02*
D03*
X024961D02*
D03*
D47*
X030374Y021319D02*
D03*
X029488D02*
D03*
X027234Y020443D02*
D03*
X026102Y021024D02*
D03*
Y022402D02*
D03*
X023797Y023758D02*
D03*
X033268Y024291D02*
D03*
X032480Y022559D02*
D03*
X032598Y032756D02*
D03*
X038543Y032283D02*
D03*
Y032992D02*
D03*
Y033701D02*
D03*
Y034409D02*
D03*
Y035118D02*
D03*
X037835D02*
D03*
Y034409D02*
D03*
Y033701D02*
D03*
Y032992D02*
D03*
Y032283D02*
D03*
X034606Y031496D02*
D03*
Y035787D02*
D03*
X036102Y025433D02*
D03*
X033701Y027126D02*
D03*
X032087Y020827D02*
D03*
X023031Y027480D02*
D03*
X032905Y019007D02*
D03*
X032441Y017480D02*
D03*
X024961Y025945D02*
D03*
X024803Y025276D02*
D03*
X027835Y029055D02*
D03*
X022756Y016575D02*
D03*
M02*
