G04 Layer_Color=20142*
%FSAX24Y24*%
%MOIN*%
G70*
G01*
G75*
%ADD58R,0.0980X0.0530*%
%ADD59R,0.0530X0.0980*%
%ADD60R,0.0552X0.0789*%
%ADD61R,0.0480X0.0580*%
%ADD62O,0.0356X0.0986*%
%ADD63R,0.0580X0.0480*%
%ADD64O,0.0356X0.1163*%
%ADD65O,0.0907X0.0198*%
%ADD66O,0.0198X0.0907*%
%ADD67R,0.1025X0.0379*%
%ADD68R,0.0247X0.1034*%
%ADD69R,0.0867X0.1064*%
G04:AMPARAMS|DCode=70|XSize=76.9mil|YSize=57.2mil|CornerRadius=8.9mil|HoleSize=0mil|Usage=FLASHONLY|Rotation=180.000|XOffset=0mil|YOffset=0mil|HoleType=Round|Shape=RoundedRectangle|*
%AMROUNDEDRECTD70*
21,1,0.0769,0.0394,0,0,180.0*
21,1,0.0591,0.0572,0,0,180.0*
1,1,0.0178,-0.0295,0.0197*
1,1,0.0178,0.0295,0.0197*
1,1,0.0178,0.0295,-0.0197*
1,1,0.0178,-0.0295,-0.0197*
%
%ADD70ROUNDEDRECTD70*%
%ADD71R,0.0533X0.0592*%
%ADD72R,0.0474X0.0631*%
%ADD73R,0.1143X0.1379*%
%ADD74R,0.1143X0.0474*%
%ADD75C,0.0680*%
%ADD76C,0.2580*%
%ADD77P,0.0953X8X22.5*%
%ADD78C,0.0880*%
%ADD79R,0.0880X0.0880*%
%ADD80R,0.0880X0.0880*%
%ADD81R,0.0680X0.0680*%
%ADD82P,0.0953X8X112.5*%
%ADD83C,0.0671*%
%ADD84R,0.0671X0.0671*%
%ADD85C,0.0434*%
%ADD86C,0.0820*%
%ADD87R,0.0820X0.0820*%
%ADD88C,0.2080*%
%ADD89C,0.0580*%
D58*
X025551Y031643D02*
D03*
Y030488D02*
D03*
X032520Y034714D02*
D03*
Y033559D02*
D03*
D59*
X033730Y031496D02*
D03*
X032575D02*
D03*
D60*
X035512Y023858D02*
D03*
Y022283D02*
D03*
X034567Y023858D02*
D03*
Y022283D02*
D03*
D61*
X035346Y024646D02*
D03*
X034546D02*
D03*
X034536Y021496D02*
D03*
X035336D02*
D03*
X028994Y015512D02*
D03*
X029794D02*
D03*
X032905Y020000D02*
D03*
X032105D02*
D03*
X035346Y025433D02*
D03*
X034546D02*
D03*
X034536Y026220D02*
D03*
X035336D02*
D03*
X027865Y028189D02*
D03*
X027065D02*
D03*
X033731Y027913D02*
D03*
X032931D02*
D03*
X033713Y028682D02*
D03*
X032913D02*
D03*
X033713Y029469D02*
D03*
X032913D02*
D03*
X033692Y021614D02*
D03*
X032892D02*
D03*
D62*
X030002Y034941D02*
D03*
X029502D02*
D03*
X029002D02*
D03*
X028502D02*
D03*
X030002Y032933D02*
D03*
X029502D02*
D03*
X029002D02*
D03*
X028502D02*
D03*
D63*
X026575Y015678D02*
D03*
Y016478D02*
D03*
X032835Y025442D02*
D03*
Y026242D02*
D03*
X025512Y018591D02*
D03*
Y019391D02*
D03*
X028858Y030294D02*
D03*
Y031094D02*
D03*
X029843Y030294D02*
D03*
Y031094D02*
D03*
X026890Y036662D02*
D03*
Y037462D02*
D03*
X032638Y016409D02*
D03*
Y015609D02*
D03*
X024803Y023613D02*
D03*
Y022813D02*
D03*
D64*
X027988Y016880D02*
D03*
X028988D02*
D03*
X029988D02*
D03*
X030988D02*
D03*
X027988Y020443D02*
D03*
X028988D02*
D03*
X029988D02*
D03*
X030988D02*
D03*
D65*
X031299Y023091D02*
D03*
Y023287D02*
D03*
Y023484D02*
D03*
Y023681D02*
D03*
Y023878D02*
D03*
Y024075D02*
D03*
Y024272D02*
D03*
Y024469D02*
D03*
Y024665D02*
D03*
Y024862D02*
D03*
Y025059D02*
D03*
Y025256D02*
D03*
Y025453D02*
D03*
Y025650D02*
D03*
Y025846D02*
D03*
Y026043D02*
D03*
X026890D02*
D03*
Y025846D02*
D03*
Y025650D02*
D03*
Y025453D02*
D03*
Y025256D02*
D03*
Y025059D02*
D03*
Y024862D02*
D03*
Y024665D02*
D03*
Y024469D02*
D03*
Y024272D02*
D03*
Y024075D02*
D03*
Y023878D02*
D03*
Y023681D02*
D03*
Y023484D02*
D03*
Y023287D02*
D03*
Y023091D02*
D03*
D66*
X030571Y026772D02*
D03*
X030374D02*
D03*
X030177D02*
D03*
X029980D02*
D03*
X029783D02*
D03*
X029587D02*
D03*
X029390D02*
D03*
X029193D02*
D03*
X028996D02*
D03*
X028799D02*
D03*
X028602D02*
D03*
X028406D02*
D03*
X028209D02*
D03*
X028012D02*
D03*
X027815D02*
D03*
X027618D02*
D03*
Y022362D02*
D03*
X027815D02*
D03*
X028012D02*
D03*
X028209D02*
D03*
X028406D02*
D03*
X028602D02*
D03*
X028799D02*
D03*
X028996D02*
D03*
X029193D02*
D03*
X029390D02*
D03*
X029587D02*
D03*
X029783D02*
D03*
X029980D02*
D03*
X030177D02*
D03*
X030374D02*
D03*
X030571D02*
D03*
D67*
X022261Y026354D02*
D03*
Y025854D02*
D03*
Y025354D02*
D03*
Y024854D02*
D03*
Y024354D02*
D03*
X023797Y026354D02*
D03*
Y025854D02*
D03*
Y025354D02*
D03*
Y024854D02*
D03*
Y024354D02*
D03*
D68*
X029291Y038366D02*
D03*
X029606D02*
D03*
X029921D02*
D03*
X030236D02*
D03*
X030551D02*
D03*
D69*
X028169Y038445D02*
D03*
Y040610D02*
D03*
X031673D02*
D03*
Y038445D02*
D03*
D70*
X030945Y032795D02*
D03*
Y031772D02*
D03*
D71*
X035364Y027934D02*
D03*
X034478D02*
D03*
Y029509D02*
D03*
X035364D02*
D03*
X034478Y028721D02*
D03*
X035364D02*
D03*
D72*
X031811Y031732D02*
D03*
Y032756D02*
D03*
D73*
X036594Y033661D02*
D03*
D74*
X034272Y032756D02*
D03*
Y033661D02*
D03*
Y034567D02*
D03*
D75*
X021576Y012646D02*
D03*
X022676D02*
D03*
X023226Y011693D02*
D03*
X022676Y010740D02*
D03*
X021576D02*
D03*
X021026Y011693D02*
D03*
X037088Y012646D02*
D03*
X038188D02*
D03*
X038738Y011693D02*
D03*
X038188Y010740D02*
D03*
X037088D02*
D03*
X036538Y011693D02*
D03*
X037088Y040756D02*
D03*
X038188D02*
D03*
X038738Y039803D02*
D03*
X038188Y038851D02*
D03*
X037088D02*
D03*
X036538Y039803D02*
D03*
X021576Y040756D02*
D03*
X022676D02*
D03*
X023226Y039803D02*
D03*
X022676Y038851D02*
D03*
X021576D02*
D03*
X021026Y039803D02*
D03*
X022717Y033685D02*
D03*
Y031685D02*
D03*
Y029685D02*
D03*
X025512Y035315D02*
D03*
D76*
X022126Y011693D02*
D03*
X037638D02*
D03*
Y039803D02*
D03*
X022126D02*
D03*
D77*
X025512Y029488D02*
D03*
X036575Y031063D02*
D03*
D78*
X028417Y036772D02*
D03*
X029417D02*
D03*
X030417D02*
D03*
X023583Y018614D02*
D03*
Y019614D02*
D03*
Y020614D02*
D03*
D79*
X031417Y036772D02*
D03*
D80*
X023583Y021614D02*
D03*
D81*
X022717Y034685D02*
D03*
D82*
X025512Y033976D02*
D03*
Y032638D02*
D03*
D83*
X026575Y019504D02*
D03*
D84*
Y018504D02*
D03*
D85*
X030787Y039429D02*
D03*
X029055D02*
D03*
D86*
X032063Y014331D02*
D03*
X030972D02*
D03*
X029882D02*
D03*
X028791D02*
D03*
X031518Y013213D02*
D03*
X030427D02*
D03*
X029337D02*
D03*
X028246D02*
D03*
D87*
X027701Y014331D02*
D03*
D88*
X034803Y013772D02*
D03*
X024961D02*
D03*
D89*
X030374Y021319D02*
D03*
X029488D02*
D03*
X027234Y020443D02*
D03*
X026102Y021024D02*
D03*
Y022402D02*
D03*
X023797Y023758D02*
D03*
X033268Y024291D02*
D03*
X032480Y022559D02*
D03*
X032598Y032756D02*
D03*
X038543Y032283D02*
D03*
Y032992D02*
D03*
Y033701D02*
D03*
Y034409D02*
D03*
Y035118D02*
D03*
X037835D02*
D03*
Y034409D02*
D03*
Y033701D02*
D03*
Y032992D02*
D03*
Y032283D02*
D03*
X034606Y031496D02*
D03*
Y035787D02*
D03*
X036102Y025433D02*
D03*
X033701Y027126D02*
D03*
X032087Y020827D02*
D03*
X023031Y027480D02*
D03*
X032905Y019007D02*
D03*
X032441Y017480D02*
D03*
X024961Y025945D02*
D03*
X024803Y025276D02*
D03*
X027835Y029055D02*
D03*
X022756Y016575D02*
D03*
M02*
