G04 Layer_Physical_Order=2*
G04 Layer_Color=11436288*
%FSAX24Y24*%
%MOIN*%
G70*
G01*
G75*
%ADD28C,0.0100*%
%ADD29C,0.0197*%
%ADD30C,0.0394*%
%ADD31C,0.0295*%
%ADD32R,0.2362X0.3543*%
%ADD33C,0.0600*%
%ADD34C,0.2500*%
%ADD35P,0.0866X8X22.5*%
%ADD36C,0.0800*%
%ADD37R,0.0800X0.0800*%
%ADD38R,0.0800X0.0800*%
%ADD39R,0.0600X0.0600*%
%ADD40P,0.0866X8X112.5*%
%ADD41C,0.0591*%
%ADD42R,0.0591X0.0591*%
%ADD43C,0.0354*%
%ADD44C,0.0740*%
%ADD45R,0.0740X0.0740*%
%ADD46C,0.2000*%
%ADD47C,0.0500*%
G36*
X022737Y027672D02*
X022726Y027657D01*
X022690Y027572D01*
X022678Y027480D01*
X022690Y027389D01*
X022726Y027304D01*
X022782Y027231D01*
X022829Y027194D01*
Y022165D01*
X022845Y022088D01*
X022888Y022022D01*
X023083Y021828D01*
Y021114D01*
X023353D01*
X023363Y021064D01*
X023331Y021051D01*
X023226Y020971D01*
X023146Y020866D01*
X023096Y020745D01*
X023078Y020614D01*
X023096Y020484D01*
X023146Y020362D01*
X023226Y020258D01*
X023331Y020177D01*
X023418Y020141D01*
Y020087D01*
X023331Y020051D01*
X023226Y019971D01*
X023146Y019866D01*
X023096Y019745D01*
X023078Y019614D01*
X023096Y019484D01*
X023146Y019362D01*
X023226Y019258D01*
X023331Y019177D01*
X023418Y019141D01*
Y019087D01*
X023331Y019051D01*
X023226Y018971D01*
X023146Y018866D01*
X023096Y018745D01*
X023085Y018664D01*
X024080D01*
X024070Y018745D01*
X024019Y018866D01*
X023939Y018971D01*
X023835Y019051D01*
X023747Y019087D01*
Y019141D01*
X023835Y019177D01*
X023939Y019258D01*
X024019Y019362D01*
X024070Y019484D01*
X024087Y019614D01*
X024070Y019745D01*
X024019Y019866D01*
X023939Y019971D01*
X023835Y020051D01*
X023747Y020087D01*
Y020141D01*
X023835Y020177D01*
X023939Y020258D01*
X024019Y020362D01*
X024070Y020484D01*
X024087Y020614D01*
X024070Y020745D01*
X024019Y020866D01*
X023939Y020971D01*
X023835Y021051D01*
X023803Y021064D01*
X023813Y021114D01*
X024083D01*
Y022114D01*
X023369D01*
X023234Y022249D01*
Y024036D01*
X023242Y024042D01*
X023284Y024054D01*
X023466Y023872D01*
X023456Y023849D01*
X023444Y023758D01*
X023456Y023666D01*
X023491Y023581D01*
X023547Y023508D01*
X023620Y023452D01*
X023706Y023417D01*
X023797Y023405D01*
X023888Y023417D01*
X023973Y023452D01*
X024047Y023508D01*
X024103Y023581D01*
X024138Y023666D01*
X024150Y023758D01*
X024138Y023849D01*
X024103Y023934D01*
X024047Y024007D01*
X023973Y024063D01*
X023888Y024099D01*
X023797Y024111D01*
X023706Y024099D01*
X023682Y024089D01*
X023534Y024237D01*
Y026822D01*
X023607Y026894D01*
X031866D01*
X033154Y025606D01*
Y024623D01*
X033091Y024597D01*
X033018Y024541D01*
X032962Y024468D01*
X032927Y024383D01*
X032915Y024291D01*
X032927Y024200D01*
X032962Y024115D01*
X033018Y024042D01*
X033091Y023986D01*
X033176Y023950D01*
X033268Y023938D01*
X033359Y023950D01*
X033444Y023986D01*
X033517Y024042D01*
X033573Y024115D01*
X033609Y024200D01*
X033621Y024291D01*
X033609Y024383D01*
X033573Y024468D01*
X033517Y024541D01*
X033460Y024585D01*
Y025669D01*
X033448Y025728D01*
X033415Y025777D01*
X032037Y027155D01*
X031988Y027189D01*
X031929Y027200D01*
X023543D01*
X023494Y027190D01*
X023485Y027189D01*
X023435Y027155D01*
X023284Y027004D01*
X023242Y027017D01*
X023234Y027023D01*
Y027194D01*
X023281Y027231D01*
X023317Y027278D01*
X032082D01*
X032377Y026983D01*
X032442Y026939D01*
X032520Y026924D01*
X033415D01*
X033451Y026876D01*
X033524Y026820D01*
X033609Y026785D01*
X033701Y026773D01*
X033792Y026785D01*
X033877Y026820D01*
X033950Y026876D01*
X033987Y026924D01*
X035900D01*
Y025719D01*
X035853Y025683D01*
X035797Y025610D01*
X035761Y025524D01*
X035749Y025433D01*
X035761Y025342D01*
X035797Y025257D01*
X035853Y025183D01*
X035900Y025147D01*
Y022840D01*
X035822Y022761D01*
X032766D01*
X032730Y022809D01*
X032657Y022865D01*
X032572Y022900D01*
X032480Y022912D01*
X032389Y022900D01*
X032304Y022865D01*
X032231Y022809D01*
X032175Y022736D01*
X032139Y022650D01*
X032127Y022559D01*
X032135Y022500D01*
X031983Y022348D01*
X031939Y022282D01*
X031924Y022205D01*
Y021138D01*
X031910Y021132D01*
X031837Y021076D01*
X031781Y021003D01*
X031746Y020918D01*
X031734Y020827D01*
X031746Y020735D01*
X031781Y020650D01*
X031837Y020577D01*
X031910Y020521D01*
X031995Y020486D01*
X031992Y020436D01*
X027588Y020442D01*
X027587Y020443D01*
X027575Y020534D01*
X027540Y020619D01*
X027484Y020693D01*
X027411Y020749D01*
X027326Y020784D01*
X027284Y020789D01*
Y020443D01*
X027234D01*
Y020393D01*
X026888D01*
X026893Y020352D01*
X026929Y020266D01*
X026985Y020193D01*
X027058Y020137D01*
X027143Y020102D01*
X027234Y020090D01*
Y019085D01*
X027087Y018937D01*
X027016Y018867D01*
X026970Y018886D01*
Y018899D01*
X026180D01*
Y018109D01*
X026193D01*
X026212Y018062D01*
X026029Y017879D01*
X024603D01*
X024049Y018434D01*
X024070Y018484D01*
X024080Y018564D01*
X023633D01*
Y018116D01*
X023713Y018127D01*
X023763Y018148D01*
X024377Y017534D01*
X024442Y017490D01*
X024520Y017475D01*
X025559D01*
X025578Y017429D01*
X025433Y017283D01*
X022953D01*
X022244Y017992D01*
Y020709D01*
Y027717D01*
X022715D01*
X022737Y027672D01*
D02*
G37*
G36*
X035630Y037953D02*
X038976D01*
Y035618D01*
X038937Y035574D01*
X036575D01*
X036536Y035567D01*
X036503Y035545D01*
X036481Y035511D01*
X036473Y035472D01*
Y031929D01*
X036481Y031890D01*
X036503Y031857D01*
X036536Y031835D01*
X036575Y031827D01*
X038937D01*
X038976Y031784D01*
Y025984D01*
Y020433D01*
Y015905D01*
X033858D01*
Y020433D01*
X032180Y020436D01*
X032176Y020486D01*
X032178Y020486D01*
X032263Y020521D01*
X032336Y020577D01*
X032392Y020650D01*
X032428Y020735D01*
X032440Y020827D01*
X032428Y020918D01*
X032392Y021003D01*
X032336Y021076D01*
X032328Y021082D01*
Y022121D01*
X032421Y022214D01*
X032480Y022206D01*
X032572Y022218D01*
X032657Y022253D01*
X032730Y022309D01*
X032766Y022357D01*
X035906D01*
X035983Y022372D01*
X036049Y022416D01*
X036245Y022613D01*
X036289Y022678D01*
X036305Y022756D01*
Y025147D01*
X036352Y025183D01*
X036408Y025257D01*
X036443Y025342D01*
X036455Y025433D01*
X036443Y025524D01*
X036408Y025610D01*
X036352Y025683D01*
X036305Y025719D01*
Y027087D01*
Y029247D01*
X036718Y029660D01*
X036762Y029726D01*
X036777Y029803D01*
Y030563D01*
X036825D01*
X037075Y030813D01*
Y031313D01*
X036825Y031563D01*
X036325D01*
X036075Y031313D01*
Y030813D01*
X036325Y030563D01*
X036372D01*
Y029887D01*
X035959Y029474D01*
X035915Y029408D01*
X035900Y029331D01*
Y027328D01*
X033987D01*
X033950Y027376D01*
X033877Y027432D01*
X033792Y027467D01*
X033701Y027479D01*
X033609Y027467D01*
X033524Y027432D01*
X033451Y027376D01*
X033415Y027328D01*
X032603D01*
X032308Y027623D01*
X032243Y027667D01*
X032165Y027683D01*
X027988D01*
Y028740D01*
X028011Y028749D01*
X028084Y028805D01*
X028140Y028879D01*
X028176Y028964D01*
X028188Y029055D01*
X028176Y029146D01*
X028140Y029232D01*
X028084Y029305D01*
X028011Y029361D01*
X027926Y029396D01*
X027835Y029408D01*
X027743Y029396D01*
X027658Y029361D01*
X027585Y029305D01*
X027529Y029232D01*
X027494Y029146D01*
X027482Y029055D01*
X027494Y028964D01*
X027529Y028879D01*
X027585Y028805D01*
X027658Y028749D01*
X027682Y028740D01*
Y027683D01*
X026808D01*
X026772Y027717D01*
Y028740D01*
Y033622D01*
X025973D01*
X025954Y033668D01*
X026012Y033726D01*
Y033926D01*
X025012D01*
Y033726D01*
X025070Y033668D01*
X025051Y033622D01*
X023150D01*
X023138Y033635D01*
X022295D01*
X022283Y033622D01*
X020866D01*
Y037953D01*
X024409D01*
Y041299D01*
X035630D01*
Y037953D01*
D02*
G37*
%LPC*%
G36*
X034556Y031446D02*
X034260D01*
X034265Y031405D01*
X034301Y031320D01*
X034357Y031246D01*
X034430Y031190D01*
X034515Y031155D01*
X034556Y031150D01*
Y031446D01*
D02*
G37*
G36*
X034953Y035737D02*
X034260D01*
X034265Y035696D01*
X034301Y035611D01*
X034357Y035538D01*
X034404Y035501D01*
Y031782D01*
X034357Y031746D01*
X034301Y031673D01*
X034265Y031587D01*
X034260Y031546D01*
X034953D01*
X034947Y031587D01*
X034912Y031673D01*
X034856Y031746D01*
X034809Y031782D01*
Y035501D01*
X034856Y035538D01*
X034912Y035611D01*
X034947Y035696D01*
X034953Y035737D01*
D02*
G37*
G36*
Y031446D02*
X034656D01*
Y031150D01*
X034698Y031155D01*
X034783Y031190D01*
X034856Y031246D01*
X034912Y031320D01*
X034947Y031405D01*
X034953Y031446D01*
D02*
G37*
G36*
X026575Y019903D02*
X026472Y019889D01*
X026375Y019849D01*
X026293Y019786D01*
X026230Y019703D01*
X026190Y019607D01*
X026176Y019504D01*
X026190Y019401D01*
X026230Y019305D01*
X026293Y019222D01*
X026375Y019159D01*
X026472Y019119D01*
X026575Y019105D01*
X026678Y019119D01*
X026774Y019159D01*
X026857Y019222D01*
X026920Y019305D01*
X026960Y019401D01*
X026973Y019504D01*
X026960Y019607D01*
X026920Y019703D01*
X026857Y019786D01*
X026774Y019849D01*
X026678Y019889D01*
X026575Y019903D01*
D02*
G37*
G36*
X023533Y018564D02*
X023085D01*
X023096Y018484D01*
X023146Y018362D01*
X023226Y018258D01*
X023331Y018177D01*
X023452Y018127D01*
X023533Y018116D01*
Y018564D01*
D02*
G37*
G36*
X027184Y020789D02*
X027143Y020784D01*
X027058Y020749D01*
X026985Y020693D01*
X026929Y020619D01*
X026893Y020534D01*
X026888Y020493D01*
X027184D01*
Y020789D01*
D02*
G37*
G36*
X024961Y026298D02*
X024869Y026286D01*
X024784Y026251D01*
X024711Y026195D01*
X024655Y026121D01*
X024620Y026036D01*
X024608Y025945D01*
X024620Y025854D01*
X024655Y025768D01*
X024711Y025695D01*
X024743Y025671D01*
X024729Y025619D01*
X024712Y025617D01*
X024627Y025581D01*
X024554Y025525D01*
X024497Y025452D01*
X024462Y025367D01*
X024450Y025276D01*
X024462Y025184D01*
X024497Y025099D01*
X024554Y025026D01*
X024627Y024970D01*
X024712Y024935D01*
X024729Y024932D01*
Y022874D01*
X024741Y022815D01*
X024774Y022766D01*
X025949Y021590D01*
Y021339D01*
X025926Y021329D01*
X025853Y021273D01*
X025797Y021200D01*
X025761Y021115D01*
X025749Y021024D01*
X025761Y020932D01*
X025797Y020847D01*
X025853Y020774D01*
X025926Y020718D01*
X026011Y020683D01*
X026102Y020671D01*
X026194Y020683D01*
X026279Y020718D01*
X026352Y020774D01*
X026408Y020847D01*
X026443Y020932D01*
X026455Y021024D01*
X026443Y021115D01*
X026408Y021200D01*
X026352Y021273D01*
X026279Y021329D01*
X026255Y021339D01*
Y021654D01*
X026244Y021712D01*
X026210Y021762D01*
X025934Y022038D01*
X025962Y022081D01*
X026011Y022061D01*
X026102Y022049D01*
X026194Y022061D01*
X026279Y022096D01*
X026352Y022152D01*
X026408Y022225D01*
X026443Y022310D01*
X026455Y022402D01*
X026443Y022493D01*
X026408Y022578D01*
X026352Y022651D01*
X026279Y022707D01*
X026194Y022743D01*
X026102Y022755D01*
X026011Y022743D01*
X025987Y022733D01*
X025429Y023292D01*
Y025433D01*
X025417Y025492D01*
X025384Y025541D01*
X025219Y025706D01*
X025266Y025768D01*
X025302Y025854D01*
X025314Y025945D01*
X025302Y026036D01*
X025266Y026121D01*
X025210Y026195D01*
X025137Y026251D01*
X025052Y026286D01*
X024961Y026298D01*
D02*
G37*
G36*
X030374Y021672D02*
X030283Y021660D01*
X030198Y021625D01*
X030124Y021569D01*
X030068Y021495D01*
X030059Y021472D01*
X029804D01*
X029794Y021495D01*
X029738Y021569D01*
X029665Y021625D01*
X029580Y021660D01*
X029488Y021672D01*
X029397Y021660D01*
X029312Y021625D01*
X029239Y021569D01*
X029182Y021495D01*
X029147Y021410D01*
X029135Y021319D01*
X029147Y021228D01*
X029182Y021142D01*
X029239Y021069D01*
X029312Y021013D01*
X029397Y020978D01*
X029488Y020966D01*
X029580Y020978D01*
X029665Y021013D01*
X029738Y021069D01*
X029794Y021142D01*
X029804Y021166D01*
X030059D01*
X030068Y021142D01*
X030124Y021069D01*
X030198Y021013D01*
X030283Y020978D01*
X030374Y020966D01*
X030465Y020978D01*
X030551Y021013D01*
X030624Y021069D01*
X030680Y021142D01*
X030715Y021228D01*
X030727Y021319D01*
X030715Y021410D01*
X030680Y021495D01*
X030624Y021569D01*
X030551Y021625D01*
X030465Y021660D01*
X030374Y021672D01*
D02*
G37*
G36*
X022667Y034082D02*
X022612Y034075D01*
X022515Y034034D01*
X022431Y033970D01*
X022367Y033887D01*
X022327Y033789D01*
X022320Y033735D01*
X022667D01*
Y034082D01*
D02*
G37*
G36*
X034656Y036134D02*
Y035837D01*
X034953D01*
X034947Y035879D01*
X034912Y035964D01*
X034856Y036037D01*
X034783Y036093D01*
X034698Y036128D01*
X034656Y036134D01*
D02*
G37*
G36*
X034556D02*
X034515Y036128D01*
X034430Y036093D01*
X034357Y036037D01*
X034301Y035964D01*
X034265Y035879D01*
X034260Y035837D01*
X034556D01*
Y036134D01*
D02*
G37*
G36*
X030417Y037276D02*
X030287Y037259D01*
X030165Y037208D01*
X030061Y037128D01*
X029981Y037024D01*
X029944Y036936D01*
X029890D01*
X029854Y037024D01*
X029774Y037128D01*
X029669Y037208D01*
X029548Y037259D01*
X029417Y037276D01*
X029287Y037259D01*
X029165Y037208D01*
X029061Y037128D01*
X028981Y037024D01*
X028944Y036936D01*
X028890D01*
X028854Y037024D01*
X028774Y037128D01*
X028669Y037208D01*
X028548Y037259D01*
X028417Y037276D01*
X028287Y037259D01*
X028165Y037208D01*
X028061Y037128D01*
X027981Y037024D01*
X027930Y036902D01*
X027913Y036772D01*
X027930Y036641D01*
X027981Y036519D01*
X028061Y036415D01*
X028165Y036335D01*
X028287Y036285D01*
X028417Y036267D01*
X028548Y036285D01*
X028669Y036335D01*
X028774Y036415D01*
X028854Y036519D01*
X028890Y036607D01*
X028944D01*
X028981Y036519D01*
X029061Y036415D01*
X029165Y036335D01*
X029287Y036285D01*
X029417Y036267D01*
X029548Y036285D01*
X029669Y036335D01*
X029774Y036415D01*
X029854Y036519D01*
X029890Y036607D01*
X029944D01*
X029981Y036519D01*
X030061Y036415D01*
X030165Y036335D01*
X030287Y036285D01*
X030417Y036267D01*
X030548Y036285D01*
X030669Y036335D01*
X030774Y036415D01*
X030854Y036519D01*
X030867Y036551D01*
X030917Y036542D01*
Y036272D01*
X031917D01*
Y037272D01*
X030917D01*
Y037002D01*
X030867Y036992D01*
X030854Y037024D01*
X030774Y037128D01*
X030669Y037208D01*
X030548Y037259D01*
X030417Y037276D01*
D02*
G37*
G36*
X030787Y039709D02*
X030715Y039699D01*
X030648Y039671D01*
X030590Y039627D01*
X030545Y039569D01*
X030517Y039501D01*
X030508Y039429D01*
X030517Y039357D01*
X030545Y039289D01*
X030590Y039231D01*
X030648Y039187D01*
X030715Y039159D01*
X030787Y039150D01*
X030860Y039159D01*
X030927Y039187D01*
X030985Y039231D01*
X031030Y039289D01*
X031057Y039357D01*
X031067Y039429D01*
X031057Y039501D01*
X031030Y039569D01*
X030985Y039627D01*
X030927Y039671D01*
X030860Y039699D01*
X030787Y039709D01*
D02*
G37*
G36*
X029055D02*
X028983Y039699D01*
X028915Y039671D01*
X028857Y039627D01*
X028813Y039569D01*
X028785Y039501D01*
X028776Y039429D01*
X028785Y039357D01*
X028813Y039289D01*
X028857Y039231D01*
X028915Y039187D01*
X028983Y039159D01*
X029055Y039150D01*
X029127Y039159D01*
X029195Y039187D01*
X029253Y039231D01*
X029297Y039289D01*
X029325Y039357D01*
X029335Y039429D01*
X029325Y039501D01*
X029297Y039569D01*
X029253Y039627D01*
X029195Y039671D01*
X029127Y039699D01*
X029055Y039709D01*
D02*
G37*
G36*
X025462Y034476D02*
X025262D01*
X025012Y034226D01*
Y034026D01*
X025462D01*
Y034476D01*
D02*
G37*
G36*
X022767Y034082D02*
Y033735D01*
X023113D01*
X023106Y033789D01*
X023066Y033887D01*
X023002Y033970D01*
X022918Y034034D01*
X022821Y034075D01*
X022767Y034082D01*
D02*
G37*
G36*
X025762Y034476D02*
X025562D01*
Y034026D01*
X026012D01*
Y034226D01*
X025762Y034476D01*
D02*
G37*
G36*
X025525Y035721D02*
X025512Y035720D01*
X025498Y035721D01*
X025420Y035710D01*
X025407Y035706D01*
X025394Y035704D01*
X025320Y035673D01*
X025309Y035666D01*
X025297Y035660D01*
X025238Y035614D01*
X024409D01*
X024332Y035604D01*
X024290Y035587D01*
X024260Y035574D01*
X024198Y035527D01*
X023656Y034984D01*
X023117D01*
Y035085D01*
X022317D01*
Y034285D01*
X023117D01*
Y034386D01*
X023780D01*
X023857Y034396D01*
X023878Y034405D01*
X023929Y034426D01*
X023991Y034473D01*
X024533Y035016D01*
X025238D01*
X025297Y034970D01*
X025309Y034964D01*
X025320Y034957D01*
X025394Y034926D01*
X025407Y034924D01*
X025420Y034919D01*
X025498Y034909D01*
X025512Y034910D01*
X025525Y034909D01*
X025604Y034919D01*
X025617Y034924D01*
X025630Y034926D01*
X025703Y034957D01*
X025714Y034964D01*
X025726Y034970D01*
X025786Y035016D01*
X026608D01*
X027820Y033804D01*
X027882Y033756D01*
X027933Y033735D01*
X027954Y033727D01*
X028031Y033716D01*
X031805D01*
X032299Y033222D01*
Y032941D01*
X032293Y032932D01*
X032257Y032847D01*
X032245Y032756D01*
X032257Y032665D01*
X032293Y032579D01*
X032349Y032506D01*
X032422Y032450D01*
X032507Y032415D01*
X032598Y032403D01*
X032690Y032415D01*
X032775Y032450D01*
X032848Y032506D01*
X032904Y032579D01*
X032939Y032665D01*
X032951Y032756D01*
X032939Y032847D01*
X032904Y032932D01*
X032898Y032941D01*
Y033346D01*
X032888Y033424D01*
X032873Y033460D01*
X032858Y033496D01*
X032810Y033558D01*
X032141Y034227D01*
X032079Y034275D01*
X032028Y034296D01*
X032007Y034305D01*
X031929Y034315D01*
X028156D01*
X026944Y035527D01*
X026882Y035574D01*
X026831Y035595D01*
X026810Y035604D01*
X026732Y035614D01*
X025786D01*
X025726Y035660D01*
X025714Y035666D01*
X025703Y035673D01*
X025630Y035704D01*
X025617Y035706D01*
X025604Y035710D01*
X025525Y035721D01*
D02*
G37*
%LPD*%
G36*
X025591Y035609D02*
X025664Y035579D01*
X025727Y035530D01*
X025776Y035467D01*
X025806Y035394D01*
X025817Y035315D01*
X025806Y035236D01*
X025776Y035163D01*
X025727Y035099D01*
X025664Y035051D01*
X025591Y035021D01*
X025512Y035010D01*
X025433Y035021D01*
X025359Y035051D01*
X025296Y035099D01*
X025248Y035163D01*
X025217Y035236D01*
X025207Y035315D01*
X025217Y035394D01*
X025248Y035467D01*
X025296Y035530D01*
X025359Y035579D01*
X025433Y035609D01*
X025512Y035620D01*
X025591Y035609D01*
D02*
G37*
D28*
X029488Y021319D02*
X030374D01*
X026102Y021024D02*
Y021654D01*
X024882Y022874D02*
X026102Y021654D01*
X024882Y022874D02*
Y025000D01*
X024606Y025276D02*
X024882Y025000D01*
X023381Y024173D02*
X023797Y023758D01*
X023381Y024173D02*
Y026885D01*
X033268Y024291D02*
X033307Y024331D01*
X025276Y023228D02*
X026102Y022402D01*
X025276Y023228D02*
Y025433D01*
X023381Y026885D02*
X023543Y027047D01*
X033307Y024331D02*
Y025669D01*
X031929Y027047D02*
X033307Y025669D01*
X023543Y027047D02*
X031929D01*
X024764Y025945D02*
X024961D01*
Y025748D02*
X025276Y025433D01*
X024961Y025748D02*
Y025748D01*
X024764Y025945D02*
X024961Y025748D01*
X024606Y025276D02*
X024803D01*
X027835Y027480D02*
Y029055D01*
D29*
X034606Y031496D02*
Y035787D01*
X033701Y027126D02*
X036063D01*
X036102Y025433D02*
Y027087D01*
X036063Y027126D02*
X036102Y027087D01*
Y029331D01*
X036575Y029803D01*
Y031063D01*
X032480Y022559D02*
X035906D01*
X036102Y022756D01*
Y025433D01*
X032126Y022205D02*
X032480Y022559D01*
X032126Y020866D02*
Y022205D01*
X032087Y020827D02*
X032126Y020866D01*
X032520Y027126D02*
X033701D01*
X032165Y027480D02*
X032520Y027126D01*
X027835Y027480D02*
X032165D01*
X023031D02*
X027835D01*
X023031Y022165D02*
Y027480D01*
Y022165D02*
X023583Y021614D01*
X032756Y018858D02*
X032905Y019007D01*
X028819Y018858D02*
X032756D01*
X027234Y020443D02*
X028819Y018858D01*
X028346D02*
X028819D01*
X027165Y017677D02*
X028346Y018858D01*
X024520Y017677D02*
X027165D01*
X023583Y018614D02*
X024520Y017677D01*
D30*
X028031Y034016D02*
X031929D01*
X032598Y033346D01*
Y032756D02*
Y033346D01*
X026732Y035315D02*
X028031Y034016D01*
X025512Y035315D02*
X026732D01*
X024409D02*
X025512D01*
X023780Y034685D02*
X024409Y035315D01*
X022717Y034685D02*
X023780D01*
X022717Y031685D02*
X023181D01*
X024134Y032638D01*
X025512D01*
X022717Y029685D02*
X025315D01*
X025512Y029488D01*
D31*
X032362Y017480D02*
X032441D01*
X022756Y016575D02*
X031457D01*
X032362Y017480D01*
D32*
X037756Y033701D02*
D03*
D33*
X021576Y012646D02*
D03*
X022676D02*
D03*
X023226Y011693D02*
D03*
X022676Y010740D02*
D03*
X021576D02*
D03*
X021026Y011693D02*
D03*
X037088Y012646D02*
D03*
X038188D02*
D03*
X038738Y011693D02*
D03*
X038188Y010740D02*
D03*
X037088D02*
D03*
X036538Y011693D02*
D03*
X037088Y040756D02*
D03*
X038188D02*
D03*
X038738Y039803D02*
D03*
X038188Y038851D02*
D03*
X037088D02*
D03*
X036538Y039803D02*
D03*
X021576Y040756D02*
D03*
X022676D02*
D03*
X023226Y039803D02*
D03*
X022676Y038851D02*
D03*
X021576D02*
D03*
X021026Y039803D02*
D03*
X022717Y033685D02*
D03*
Y031685D02*
D03*
Y029685D02*
D03*
X025512Y035315D02*
D03*
D34*
X022126Y011693D02*
D03*
X037638D02*
D03*
Y039803D02*
D03*
X022126D02*
D03*
D35*
X025512Y029488D02*
D03*
X036575Y031063D02*
D03*
D36*
X028417Y036772D02*
D03*
X029417D02*
D03*
X030417D02*
D03*
X023583Y018614D02*
D03*
Y019614D02*
D03*
Y020614D02*
D03*
D37*
X031417Y036772D02*
D03*
D38*
X023583Y021614D02*
D03*
D39*
X022717Y034685D02*
D03*
D40*
X025512Y033976D02*
D03*
Y032638D02*
D03*
D41*
X026575Y019504D02*
D03*
D42*
Y018504D02*
D03*
D43*
X030787Y039429D02*
D03*
X029055D02*
D03*
D44*
X032063Y014331D02*
D03*
X030972D02*
D03*
X029882D02*
D03*
X028791D02*
D03*
X031518Y013213D02*
D03*
X030427D02*
D03*
X029337D02*
D03*
X028246D02*
D03*
D45*
X027701Y014331D02*
D03*
D46*
X034803Y013772D02*
D03*
X024961D02*
D03*
D47*
X030374Y021319D02*
D03*
X029488D02*
D03*
X027234Y020443D02*
D03*
X026102Y021024D02*
D03*
Y022402D02*
D03*
X023797Y023758D02*
D03*
X033268Y024291D02*
D03*
X032480Y022559D02*
D03*
X032598Y032756D02*
D03*
X038543Y032283D02*
D03*
Y032992D02*
D03*
Y033701D02*
D03*
Y034409D02*
D03*
Y035118D02*
D03*
X037835D02*
D03*
Y034409D02*
D03*
Y033701D02*
D03*
Y032992D02*
D03*
Y032283D02*
D03*
X034606Y031496D02*
D03*
Y035787D02*
D03*
X036102Y025433D02*
D03*
X033701Y027126D02*
D03*
X032087Y020827D02*
D03*
X023031Y027480D02*
D03*
X032905Y019007D02*
D03*
X032441Y017480D02*
D03*
X024961Y025945D02*
D03*
X024803Y025276D02*
D03*
X027835Y029055D02*
D03*
X022756Y016575D02*
D03*
M02*
