M48
;Layer_Color=6321
;FILE_FORMAT=2:4
INCH
;TYPE=PLATED
T1F00S00C0.0280
T2F00S00C0.0300
T3F00S00C0.0315
T4F00S00C0.0394
T5F00S00C0.0400
T6F00S00C0.0433
T7F00S00C0.1220
T8F00S00C0.1300
;TYPE=NON_PLATED
T9F00S00C0.0354
%
T01
X032441Y017480
X032905Y019007
X032087Y020827
X032480Y022559
X033268Y024291
X033701Y027126
X036102Y025433
X030374Y021319
X029488
X027234Y020443
X026102Y021024
Y022402
X023797Y023758
X024803Y025276
X024961Y025945
X023031Y027480
X027835Y029055
X022756Y016575
X032598Y032756
X034606Y031496
X037835Y032283
X038543
Y032992
Y033701
Y034409
Y035118
X037835
Y034409
Y033701
Y032992
X034606Y035787
T02
X021576Y010740
X022676
X023226Y011693
X022676Y012646
X021576
X021026Y011693
X036538
X037088Y012646
X038188
X038738Y011693
X038188Y010740
X037088
X022676Y038851
X021576
X021026Y039803
X021576Y040756
X022676
X023226Y039803
X036538
X037088Y040756
X038188
X038738Y039803
X038188Y038851
X037088
T03
X022717Y029685
Y031685
Y033685
Y034685
T04
X023583Y018614
Y019614
Y020614
Y021614
X026575Y019504
Y018504
X028417Y036772
X029417
X030417
X031417
T05
X036575Y031063
X025512Y029488
Y032638
Y033976
Y035315
T06
X028246Y013213
X029337
X030427
X029882Y014331
X030972
X028791
X027701
X032063
X031518Y013213
T07
X022126Y011693
X037638
X022126Y039803
X037638
T08
X024961Y013772
X034803
T09
X029055Y039429
X030787
M30
