G04 Layer_Color=8150272*
%FSAX24Y24*%
%MOIN*%
G70*
G01*
G75*
%ADD75C,0.0680*%
%ADD76C,0.2580*%
%ADD77P,0.0953X8X22.5*%
%ADD78C,0.0880*%
%ADD79R,0.0880X0.0880*%
%ADD80R,0.0880X0.0880*%
%ADD81R,0.0680X0.0680*%
%ADD82P,0.0953X8X112.5*%
%ADD83C,0.0671*%
%ADD84R,0.0671X0.0671*%
%ADD85C,0.0434*%
%ADD86C,0.0820*%
%ADD87R,0.0820X0.0820*%
%ADD88C,0.2080*%
%ADD89C,0.0580*%
D75*
X021576Y012646D02*
D03*
X022676D02*
D03*
X023226Y011693D02*
D03*
X022676Y010740D02*
D03*
X021576D02*
D03*
X021026Y011693D02*
D03*
X037088Y012646D02*
D03*
X038188D02*
D03*
X038738Y011693D02*
D03*
X038188Y010740D02*
D03*
X037088D02*
D03*
X036538Y011693D02*
D03*
X037088Y040756D02*
D03*
X038188D02*
D03*
X038738Y039803D02*
D03*
X038188Y038851D02*
D03*
X037088D02*
D03*
X036538Y039803D02*
D03*
X021576Y040756D02*
D03*
X022676D02*
D03*
X023226Y039803D02*
D03*
X022676Y038851D02*
D03*
X021576D02*
D03*
X021026Y039803D02*
D03*
X022717Y033685D02*
D03*
Y031685D02*
D03*
Y029685D02*
D03*
X025512Y035315D02*
D03*
D76*
X022126Y011693D02*
D03*
X037638D02*
D03*
Y039803D02*
D03*
X022126D02*
D03*
D77*
X025512Y029488D02*
D03*
X036575Y031063D02*
D03*
D78*
X028417Y036772D02*
D03*
X029417D02*
D03*
X030417D02*
D03*
X023583Y018614D02*
D03*
Y019614D02*
D03*
Y020614D02*
D03*
D79*
X031417Y036772D02*
D03*
D80*
X023583Y021614D02*
D03*
D81*
X022717Y034685D02*
D03*
D82*
X025512Y033976D02*
D03*
Y032638D02*
D03*
D83*
X026575Y019504D02*
D03*
D84*
Y018504D02*
D03*
D85*
X030787Y039429D02*
D03*
X029055D02*
D03*
D86*
X032063Y014331D02*
D03*
X030972D02*
D03*
X029882D02*
D03*
X028791D02*
D03*
X031518Y013213D02*
D03*
X030427D02*
D03*
X029337D02*
D03*
X028246D02*
D03*
D87*
X027701Y014331D02*
D03*
D88*
X034803Y013772D02*
D03*
X024961D02*
D03*
D89*
X030374Y021319D02*
D03*
X029488D02*
D03*
X027234Y020443D02*
D03*
X026102Y021024D02*
D03*
Y022402D02*
D03*
X023797Y023758D02*
D03*
X033268Y024291D02*
D03*
X032480Y022559D02*
D03*
X032598Y032756D02*
D03*
X038543Y032283D02*
D03*
Y032992D02*
D03*
Y033701D02*
D03*
Y034409D02*
D03*
Y035118D02*
D03*
X037835D02*
D03*
Y034409D02*
D03*
Y033701D02*
D03*
Y032992D02*
D03*
Y032283D02*
D03*
X034606Y031496D02*
D03*
Y035787D02*
D03*
X036102Y025433D02*
D03*
X033701Y027126D02*
D03*
X032087Y020827D02*
D03*
X023031Y027480D02*
D03*
X032905Y019007D02*
D03*
X032441Y017480D02*
D03*
X024961Y025945D02*
D03*
X024803Y025276D02*
D03*
X027835Y029055D02*
D03*
X022756Y016575D02*
D03*
M02*
