G04 Layer_Color=15132400*
%FSAX24Y24*%
%MOIN*%
G70*
G01*
G75*
%ADD27C,0.0150*%
%ADD28C,0.0100*%
%ADD48C,0.0050*%
%ADD49C,0.0039*%
%ADD50C,0.0098*%
%ADD51C,0.0157*%
%ADD52C,0.0236*%
%ADD53C,0.0060*%
%ADD54C,0.0250*%
%ADD55C,0.0080*%
%ADD56C,0.0040*%
%ADD57C,0.0079*%
G36*
X037629Y018081D02*
X037593D01*
X037600Y018074D01*
X037615Y018052D01*
X037629Y018023D01*
X037636Y017979D01*
Y017964D01*
X037629Y017935D01*
X037615Y017899D01*
X037585Y017869D01*
X037578Y017862D01*
X037556Y017855D01*
X037534Y017848D01*
X037505D01*
X037469Y017840D01*
X037403D01*
X037352Y017848D01*
X037301Y017855D01*
X037279Y017862D01*
X037265Y017869D01*
X037257Y017877D01*
X037243Y017891D01*
X037228Y017928D01*
X037221Y017979D01*
Y017986D01*
X037228Y018015D01*
X037236Y018044D01*
X037265Y018081D01*
X037053D01*
Y018168D01*
X037629D01*
Y018081D01*
D02*
G37*
G36*
X037323Y017775D02*
X037316Y017767D01*
X037308Y017760D01*
X037301Y017738D01*
X037294Y017716D01*
Y017702D01*
X037308Y017680D01*
X037330Y017658D01*
X037359Y017643D01*
X037629D01*
Y017563D01*
X037221D01*
Y017643D01*
X037265D01*
X037257Y017651D01*
X037243Y017673D01*
X037228Y017702D01*
X037221Y017746D01*
Y017753D01*
Y017775D01*
X037236Y017804D01*
X037250Y017840D01*
X037323Y017775D01*
D02*
G37*
G36*
X036900Y018445D02*
X036922Y018431D01*
X036944Y018409D01*
X036966Y018380D01*
X036980Y018336D01*
X036988Y018278D01*
Y018270D01*
Y018263D01*
X036980Y018219D01*
X036959Y018161D01*
X036915Y018103D01*
X036856Y018154D01*
X036864Y018161D01*
X036886Y018190D01*
X036907Y018234D01*
X036915Y018285D01*
Y018292D01*
Y018300D01*
X036907Y018329D01*
X036893Y018358D01*
X036878Y018372D01*
X036849D01*
X036842Y018365D01*
X036827Y018351D01*
X036813Y018314D01*
Y018241D01*
Y018234D01*
X036805Y018227D01*
X036791Y018183D01*
X036754Y018146D01*
X036725Y018132D01*
X036689Y018125D01*
X036667D01*
X036623Y018146D01*
X036601Y018161D01*
X036587Y018190D01*
X036572Y018227D01*
X036565Y018278D01*
Y018285D01*
Y018292D01*
X036572Y018336D01*
X036587Y018387D01*
X036623Y018438D01*
X036681Y018387D01*
X036674Y018372D01*
X036660Y018343D01*
X036652Y018307D01*
X036645Y018278D01*
Y018263D01*
X036652Y018241D01*
X036660Y018219D01*
X036689Y018205D01*
X036696D01*
X036703Y018212D01*
X036718Y018227D01*
X036725Y018256D01*
X036733Y018336D01*
Y018343D01*
X036740Y018358D01*
X036754Y018394D01*
X036791Y018438D01*
X036820Y018445D01*
X036856Y018453D01*
X036878D01*
X036900Y018445D01*
D02*
G37*
G36*
X036835Y018824D02*
X036886Y018817D01*
X036929Y018788D01*
X036937Y018781D01*
X036959Y018759D01*
X036980Y018722D01*
X036988Y018664D01*
Y018649D01*
X036980Y018620D01*
X036966Y018584D01*
X036929Y018540D01*
X036922Y018533D01*
X036893Y018518D01*
X036842Y018504D01*
X036776Y018496D01*
X036762D01*
X036718Y018504D01*
X036660Y018518D01*
X036616Y018540D01*
X036609Y018547D01*
X036587Y018569D01*
X036572Y018613D01*
X036565Y018664D01*
Y018671D01*
Y018679D01*
X036572Y018715D01*
X036587Y018752D01*
X036616Y018788D01*
X036623Y018795D01*
X036652Y018810D01*
X036703Y018824D01*
X036776Y018832D01*
X036791D01*
X036835Y018824D01*
D02*
G37*
G36*
X037629Y018664D02*
Y018591D01*
X037338Y018496D01*
X037629Y018416D01*
Y018343D01*
X037221Y018212D01*
Y018292D01*
X037505Y018380D01*
X037221Y018475D01*
Y018540D01*
X037505Y018628D01*
X037221Y018708D01*
Y018795D01*
X037629Y018664D01*
D02*
G37*
G36*
Y016995D02*
X037374D01*
X037338Y016987D01*
X037308Y016958D01*
X037301Y016936D01*
X037294Y016907D01*
Y016893D01*
X037308Y016871D01*
X037330Y016842D01*
X037359Y016834D01*
X037389Y016827D01*
X037629D01*
Y016754D01*
X036565D01*
Y016827D01*
X036616D01*
X036609Y016834D01*
X036587Y016856D01*
X036572Y016893D01*
X036565Y016936D01*
Y016951D01*
X036572Y016973D01*
X036587Y017017D01*
X036616Y017053D01*
X036623Y017060D01*
X036652Y017068D01*
X036703Y017075D01*
X036842D01*
X036893Y017068D01*
X036915Y017060D01*
X036929Y017053D01*
X036937Y017046D01*
X036959Y017017D01*
X036980Y016980D01*
X036988Y016936D01*
Y016929D01*
X036980Y016907D01*
X036966Y016871D01*
X036944Y016827D01*
X037265D01*
X037257Y016834D01*
X037243Y016849D01*
X037228Y016885D01*
X037221Y016936D01*
Y016944D01*
Y016958D01*
X037236Y017009D01*
X037257Y017031D01*
X037279Y017053D01*
X037316Y017068D01*
X037359Y017075D01*
X037629D01*
Y016995D01*
D02*
G37*
G36*
X036835Y016667D02*
X036886Y016659D01*
X036929Y016630D01*
X036937Y016623D01*
X036959Y016601D01*
X036980Y016565D01*
X036988Y016514D01*
Y016499D01*
X036980Y016470D01*
X036966Y016426D01*
X036929Y016382D01*
X036922Y016375D01*
X036893Y016368D01*
X036842Y016353D01*
X036776Y016346D01*
X036762D01*
X036718Y016353D01*
X036667Y016360D01*
X036616Y016382D01*
X036609Y016390D01*
X036587Y016419D01*
X036572Y016455D01*
X036565Y016514D01*
Y016521D01*
Y016528D01*
X036572Y016565D01*
X036587Y016601D01*
X036616Y016630D01*
X036623Y016637D01*
X036652Y016652D01*
X036703Y016667D01*
X036776Y016674D01*
X036791D01*
X036835Y016667D01*
D02*
G37*
G36*
X036813Y017213D02*
X036827D01*
X036864Y017228D01*
X036900Y017257D01*
X036907Y017279D01*
X036915Y017308D01*
Y017323D01*
X036907Y017345D01*
X036893Y017374D01*
X036864Y017403D01*
X036922Y017469D01*
X036929Y017454D01*
X036951Y017425D01*
X036980Y017374D01*
X036988Y017315D01*
Y017308D01*
Y017286D01*
X036973Y017257D01*
X036959Y017228D01*
X036937Y017191D01*
X036900Y017162D01*
X036849Y017140D01*
X036776Y017133D01*
X036740D01*
X036711Y017140D01*
X036667Y017155D01*
X036630Y017177D01*
X036594Y017206D01*
X036572Y017243D01*
X036565Y017301D01*
Y017308D01*
Y017330D01*
X036572Y017359D01*
X036587Y017388D01*
X036609Y017417D01*
X036638Y017447D01*
X036674Y017469D01*
X036733Y017476D01*
X036813D01*
Y017213D01*
D02*
G37*
G36*
X036980Y017797D02*
X036718D01*
X036689Y017789D01*
X036660Y017760D01*
X036645Y017738D01*
Y017709D01*
Y017695D01*
X036652Y017673D01*
X036681Y017643D01*
X036703Y017636D01*
X036733Y017629D01*
X036980D01*
Y017541D01*
X036565D01*
Y017629D01*
X036616D01*
X036609Y017636D01*
X036587Y017651D01*
X036572Y017687D01*
X036565Y017738D01*
Y017746D01*
Y017760D01*
X036579Y017811D01*
X036601Y017833D01*
X036623Y017855D01*
X036660Y017869D01*
X036711Y017877D01*
X036980D01*
Y017797D01*
D02*
G37*
G36*
X037629Y017381D02*
X037593D01*
X037600Y017374D01*
X037615Y017359D01*
X037629Y017330D01*
X037636Y017279D01*
Y017272D01*
Y017257D01*
X037622Y017206D01*
X037607Y017177D01*
X037578Y017155D01*
X037549Y017140D01*
X037505Y017133D01*
X037483D01*
X037447Y017148D01*
X037425Y017170D01*
X037403Y017191D01*
X037396Y017228D01*
X037389Y017272D01*
Y017381D01*
X037345D01*
X037323Y017374D01*
X037301Y017345D01*
X037294Y017330D01*
Y017301D01*
Y017294D01*
Y017272D01*
X037308Y017243D01*
X037323Y017213D01*
X037272Y017155D01*
X037265Y017162D01*
X037243Y017191D01*
X037228Y017235D01*
X037221Y017294D01*
Y017301D01*
Y017323D01*
X037228Y017352D01*
X037236Y017381D01*
X037250Y017410D01*
X037279Y017439D01*
X037308Y017461D01*
X037352Y017469D01*
X037629D01*
Y017381D01*
D02*
G37*
G36*
Y019050D02*
X037593D01*
X037600Y019043D01*
X037615Y019029D01*
X037629Y018992D01*
X037636Y018948D01*
Y018941D01*
Y018927D01*
X037622Y018875D01*
X037607Y018846D01*
X037578Y018817D01*
X037549Y018803D01*
X037505Y018795D01*
X037483D01*
X037447Y018810D01*
X037425Y018832D01*
X037403Y018854D01*
X037396Y018890D01*
X037389Y018934D01*
Y019050D01*
X037345D01*
X037323Y019043D01*
X037301Y019014D01*
X037294Y018992D01*
Y018963D01*
Y018956D01*
Y018934D01*
X037308Y018905D01*
X037323Y018890D01*
X037272Y018824D01*
X037265Y018832D01*
X037243Y018854D01*
X037228Y018897D01*
X037221Y018927D01*
Y018963D01*
Y018970D01*
Y018992D01*
X037228Y019014D01*
X037236Y019050D01*
X037250Y019080D01*
X037279Y019101D01*
X037308Y019123D01*
X037352Y019131D01*
X037629D01*
Y019050D01*
D02*
G37*
G36*
X036674Y019539D02*
X036667D01*
X036660Y019524D01*
X036652Y019510D01*
X036645Y019495D01*
Y019481D01*
X036652Y019459D01*
X036681Y019430D01*
X036703Y019422D01*
X036733Y019415D01*
X036980D01*
Y019327D01*
X036565D01*
Y019415D01*
X036616D01*
X036609Y019422D01*
X036587Y019437D01*
X036572Y019473D01*
X036565Y019524D01*
Y019532D01*
Y019546D01*
X036579Y019575D01*
X036594Y019604D01*
X036674Y019539D01*
D02*
G37*
G36*
X035223Y019838D02*
X035231Y019830D01*
X035304Y019466D01*
Y019459D01*
X035311Y019451D01*
X035326D01*
X035610Y019327D01*
X035639D01*
X035945Y019539D01*
X035967D01*
X036244Y019262D01*
X036251Y019255D01*
Y019247D01*
X036244Y019233D01*
X036040Y018934D01*
Y018927D01*
Y018919D01*
Y018912D01*
Y018905D01*
X036113Y018781D01*
Y018773D01*
Y018766D01*
X036106Y018759D01*
X035442Y018482D01*
X035435D01*
X035413Y018489D01*
X035398Y018526D01*
X035391Y018533D01*
X035384Y018540D01*
X035377Y018547D01*
X035369Y018555D01*
X035355Y018577D01*
X035326Y018613D01*
X035289Y018649D01*
X035238Y018679D01*
X035180Y018715D01*
X035107Y018737D01*
X035027Y018744D01*
X034997D01*
X034961Y018737D01*
X034917Y018730D01*
X034874Y018715D01*
X034823Y018693D01*
X034772Y018664D01*
X034720Y018620D01*
X034713Y018613D01*
X034699Y018598D01*
X034677Y018569D01*
X034655Y018533D01*
X034633Y018489D01*
X034611Y018438D01*
X034597Y018380D01*
X034589Y018314D01*
Y018307D01*
Y018285D01*
X034597Y018249D01*
X034604Y018212D01*
X034618Y018161D01*
X034648Y018110D01*
X034677Y018059D01*
X034720Y018008D01*
X034728Y018001D01*
X034742Y017986D01*
X034772Y017972D01*
X034808Y017950D01*
X034852Y017921D01*
X034903Y017906D01*
X034961Y017891D01*
X035027Y017884D01*
X035063D01*
X035107Y017891D01*
X035158Y017906D01*
X035216Y017935D01*
X035275Y017964D01*
X035326Y018015D01*
X035377Y018081D01*
X035384Y018088D01*
X035391Y018095D01*
Y018103D01*
X035398D01*
X035413Y018139D01*
X035420Y018146D01*
X035442D01*
X036106Y017877D01*
Y017869D01*
X036113Y017848D01*
X036040Y017716D01*
Y017709D01*
Y017702D01*
Y017695D01*
X036244Y017396D01*
X036251Y017388D01*
Y017381D01*
X036244Y017366D01*
X035967Y017082D01*
X035945D01*
X035639Y017301D01*
X035610D01*
X035326Y017177D01*
X035311D01*
X035304Y017170D01*
Y017162D01*
X035231Y016798D01*
Y016791D01*
X035223Y016783D01*
X034808D01*
X034801Y016791D01*
Y016798D01*
X034735Y017170D01*
Y017177D01*
X034720Y017199D01*
X034451Y017308D01*
X034422D01*
X034094Y017082D01*
X034064D01*
X033795Y017366D01*
X033787Y017374D01*
Y017396D01*
X034021Y017716D01*
Y017724D01*
Y017731D01*
Y017738D01*
Y017746D01*
X033911Y018008D01*
Y018015D01*
X033904Y018023D01*
X033889D01*
X033503Y018103D01*
X033488D01*
X033481Y018110D01*
Y018117D01*
Y018511D01*
Y018518D01*
X033488Y018526D01*
X033503D01*
X033889Y018606D01*
X033897D01*
X033904Y018613D01*
X033911Y018620D01*
X034021Y018883D01*
Y018890D01*
Y018897D01*
Y018905D01*
X033787Y019233D01*
Y019240D01*
Y019247D01*
X033795Y019262D01*
X034064Y019539D01*
X034094D01*
X034422Y019320D01*
X034451D01*
X034720Y019437D01*
X034728D01*
X034735Y019444D01*
Y019459D01*
X034801Y019830D01*
Y019838D01*
X034808Y019845D01*
X035216D01*
X035223Y019838D01*
D02*
G37*
G36*
X037462Y019590D02*
X037476D01*
X037513Y019604D01*
X037549Y019626D01*
X037556Y019648D01*
X037564Y019677D01*
Y019692D01*
X037556Y019714D01*
X037542Y019743D01*
X037520Y019772D01*
X037571Y019838D01*
X037578Y019823D01*
X037600Y019794D01*
X037629Y019750D01*
X037636Y019692D01*
Y019685D01*
Y019663D01*
X037622Y019634D01*
X037607Y019597D01*
X037585Y019561D01*
X037549Y019532D01*
X037498Y019510D01*
X037425Y019502D01*
X037396D01*
X037359Y019510D01*
X037323Y019524D01*
X037287Y019546D01*
X037250Y019575D01*
X037228Y019612D01*
X037221Y019670D01*
Y019677D01*
Y019699D01*
X037228Y019728D01*
X037243Y019758D01*
X037265Y019787D01*
X037294Y019816D01*
X037330Y019838D01*
X037389Y019845D01*
X037462D01*
Y019590D01*
D02*
G37*
G36*
X036813Y020035D02*
X036827D01*
X036864Y020049D01*
X036900Y020078D01*
X036907Y020100D01*
X036915Y020137D01*
Y020144D01*
X036907Y020166D01*
X036893Y020195D01*
X036864Y020217D01*
X036922Y020282D01*
X036929Y020268D01*
X036951Y020239D01*
X036980Y020195D01*
X036988Y020137D01*
Y020129D01*
Y020108D01*
X036973Y020078D01*
X036959Y020042D01*
X036937Y020005D01*
X036900Y019976D01*
X036849Y019954D01*
X036776Y019947D01*
X036740D01*
X036711Y019954D01*
X036667Y019969D01*
X036630Y019991D01*
X036594Y020020D01*
X036572Y020056D01*
X036565Y020115D01*
Y020122D01*
Y020144D01*
X036572Y020173D01*
X036587Y020210D01*
X036609Y020239D01*
X036638Y020268D01*
X036674Y020290D01*
X036733Y020297D01*
X036813D01*
Y020035D01*
D02*
G37*
G36*
X036929Y019925D02*
X036951Y019896D01*
X036973Y019845D01*
X036988Y019787D01*
Y019779D01*
Y019758D01*
X036973Y019728D01*
X036959Y019692D01*
X036937Y019656D01*
X036900Y019626D01*
X036849Y019604D01*
X036776Y019597D01*
X036740D01*
X036711Y019604D01*
X036667Y019619D01*
X036630Y019641D01*
X036594Y019677D01*
X036572Y019721D01*
X036565Y019787D01*
Y019794D01*
Y019801D01*
X036572Y019838D01*
X036594Y019882D01*
X036630Y019933D01*
X036689Y019867D01*
X036681Y019860D01*
X036667Y019845D01*
X036652Y019823D01*
X036645Y019787D01*
Y019779D01*
Y019772D01*
X036660Y019736D01*
X036674Y019714D01*
X036703Y019692D01*
X036733Y019685D01*
X036776Y019677D01*
X036798D01*
X036835Y019692D01*
X036864Y019707D01*
X036878Y019721D01*
X036893Y019750D01*
X036900Y019787D01*
Y019794D01*
X036893Y019816D01*
X036878Y019838D01*
X036856Y019867D01*
X036915Y019933D01*
X036929Y019925D01*
D02*
G37*
G36*
X036980Y019153D02*
X036944D01*
X036951Y019145D01*
X036966Y019123D01*
X036980Y019087D01*
X036988Y019050D01*
Y019043D01*
Y019029D01*
X036973Y018978D01*
X036951Y018948D01*
X036929Y018927D01*
X036893Y018912D01*
X036849Y018905D01*
X036565D01*
Y018992D01*
X036827D01*
X036856Y019007D01*
X036886Y019029D01*
X036893Y019050D01*
X036900Y019080D01*
Y019094D01*
X036886Y019116D01*
X036864Y019138D01*
X036842Y019153D01*
X036565D01*
Y019233D01*
X036980D01*
Y019153D01*
D02*
G37*
G36*
X037323Y019437D02*
X037316Y019430D01*
X037308Y019422D01*
X037301Y019400D01*
X037294Y019386D01*
Y019371D01*
X037308Y019349D01*
X037330Y019320D01*
X037359Y019313D01*
X037389Y019306D01*
X037629D01*
Y019225D01*
X037221D01*
Y019306D01*
X037265D01*
X037257Y019313D01*
X037243Y019335D01*
X037228Y019371D01*
X037221Y019422D01*
Y019430D01*
Y019444D01*
X037236Y019473D01*
X037250Y019502D01*
X037323Y019437D01*
D02*
G37*
%LPC*%
G36*
X036820Y016995D02*
X036754D01*
X036711Y016987D01*
X036667Y016958D01*
X036652Y016936D01*
X036645Y016907D01*
Y016893D01*
X036660Y016871D01*
X036674Y016856D01*
X036703Y016842D01*
X036733Y016834D01*
X036776Y016827D01*
X036798D01*
X036835Y016834D01*
X036878Y016863D01*
X036893Y016878D01*
X036900Y016907D01*
Y016914D01*
Y016922D01*
X036886Y016951D01*
X036871Y016966D01*
X036849Y016980D01*
X036820Y016995D01*
D02*
G37*
G36*
Y018752D02*
X036733D01*
X036703Y018744D01*
X036681Y018730D01*
X036674D01*
X036660Y018715D01*
X036652Y018693D01*
X036645Y018664D01*
Y018657D01*
X036652Y018642D01*
X036660Y018620D01*
X036681Y018606D01*
X036696Y018598D01*
X036725Y018591D01*
X036776Y018584D01*
X036813D01*
X036849Y018591D01*
X036878Y018606D01*
X036886Y018613D01*
X036893Y018635D01*
X036900Y018664D01*
Y018671D01*
Y018693D01*
X036893Y018715D01*
X036878Y018730D01*
X036871Y018737D01*
X036856Y018744D01*
X036820Y018752D01*
D02*
G37*
G36*
X036733Y020210D02*
X036718D01*
X036689Y020195D01*
X036660Y020166D01*
X036645Y020144D01*
Y020115D01*
Y020100D01*
X036652Y020078D01*
X036681Y020049D01*
X036703Y020042D01*
X036733Y020035D01*
Y020210D01*
D02*
G37*
G36*
X036820Y016594D02*
X036733D01*
X036703Y016586D01*
X036681Y016572D01*
X036674D01*
X036660Y016557D01*
X036652Y016543D01*
X036645Y016514D01*
Y016506D01*
X036652Y016484D01*
X036660Y016463D01*
X036681Y016441D01*
X036689D01*
X036703Y016433D01*
X036733Y016426D01*
X036776Y016419D01*
X036813D01*
X036842Y016426D01*
X036878Y016441D01*
X036886Y016455D01*
X036893Y016477D01*
X036900Y016514D01*
Y016521D01*
Y016535D01*
X036893Y016557D01*
X036878Y016572D01*
X036871Y016579D01*
X036856Y016586D01*
X036820Y016594D01*
D02*
G37*
G36*
X037491Y019050D02*
X037462D01*
Y018956D01*
Y018941D01*
X037469Y018919D01*
X037476Y018897D01*
X037505Y018883D01*
X037513D01*
X037534Y018890D01*
X037556Y018912D01*
X037564Y018956D01*
Y018963D01*
Y018970D01*
X037556Y019007D01*
X037534Y019036D01*
X037513Y019043D01*
X037491Y019050D01*
D02*
G37*
G36*
X037513Y017381D02*
X037462D01*
Y017279D01*
Y017272D01*
X037469Y017250D01*
X037476Y017221D01*
X037505Y017213D01*
X037513D01*
X037534Y017221D01*
X037556Y017250D01*
X037564Y017264D01*
Y017294D01*
Y017301D01*
Y017308D01*
X037556Y017337D01*
X037534Y017366D01*
X037513Y017381D01*
D02*
G37*
G36*
X037469Y018081D02*
X037403D01*
X037359Y018074D01*
X037316Y018052D01*
X037301Y018030D01*
X037294Y018008D01*
Y017993D01*
X037308Y017964D01*
X037323Y017950D01*
X037352Y017935D01*
X037381Y017928D01*
X037425Y017921D01*
X037447D01*
X037491Y017935D01*
X037534Y017957D01*
X037549Y017979D01*
X037556Y018008D01*
Y018023D01*
X037542Y018044D01*
X037527Y018059D01*
X037498Y018066D01*
X037469Y018081D01*
D02*
G37*
G36*
X037389Y019765D02*
X037374D01*
X037338Y019750D01*
X037308Y019721D01*
X037301Y019699D01*
X037294Y019670D01*
Y019656D01*
X037308Y019634D01*
X037330Y019604D01*
X037359Y019597D01*
X037389Y019590D01*
Y019765D01*
D02*
G37*
G36*
X036733Y017396D02*
X036718D01*
X036689Y017381D01*
X036660Y017352D01*
X036645Y017330D01*
Y017301D01*
Y017286D01*
X036652Y017257D01*
X036681Y017228D01*
X036703Y017221D01*
X036733Y017213D01*
Y017396D01*
D02*
G37*
%LPD*%
D27*
X025625Y015531D02*
X025785Y015391D01*
X025285Y015191D02*
X025495Y015141D01*
D28*
X022281Y026954D02*
G03*
X022281Y026954I-000050J000000D01*
G01*
X027917Y036272D02*
X031917D01*
Y037272D01*
X027917D02*
X031917D01*
X027917Y036272D02*
Y037272D01*
X024083Y018114D02*
Y022114D01*
X023083D02*
X024083D01*
X023083Y018114D02*
Y022114D01*
Y018114D02*
X024083D01*
X024685Y027992D02*
Y035866D01*
X021929Y027992D02*
X024685D01*
X021929Y035866D02*
X024685D01*
X021929Y027992D02*
Y035866D01*
X026075Y018004D02*
Y020004D01*
Y018004D02*
X027075D01*
Y020004D01*
X026075D02*
X027075D01*
X027972Y039105D02*
Y039950D01*
X031870Y041270D02*
Y041398D01*
X027972D02*
X031870D01*
X027972Y041270D02*
Y041398D01*
X031870Y039105D02*
Y039950D01*
X023819Y010831D02*
X035945D01*
X023819Y010039D02*
X035945D01*
X035827Y027913D02*
X036535D01*
X036929Y027520D01*
X037283D01*
X035827Y028701D02*
X036339D01*
X036732Y028307D01*
X036811D01*
X035827Y029488D02*
X036614D01*
X036890Y029213D01*
X037283D01*
X031566Y030360D02*
Y029961D01*
X031865D01*
Y030161D01*
Y029961D01*
X032165D01*
X031566Y030560D02*
X032165D01*
Y030860D01*
X032065Y030960D01*
X031965D01*
X031865Y030860D01*
Y030560D01*
Y030860D01*
X031765Y030960D01*
X031666D01*
X031566Y030860D01*
Y030560D01*
X032165Y031160D02*
Y031360D01*
Y031260D01*
X031566D01*
X031666Y031160D01*
X026311Y030557D02*
X026211Y030457D01*
Y030257D01*
X026311Y030157D01*
X026711D01*
X026811Y030257D01*
Y030457D01*
X026711Y030557D01*
X026811Y030757D02*
Y030957D01*
Y030857D01*
X026211D01*
X026311Y030757D01*
X026811Y031657D02*
Y031257D01*
X026411Y031657D01*
X026311D01*
X026211Y031557D01*
Y031357D01*
X026311Y031257D01*
X032447Y035829D02*
X032347Y035929D01*
X032147D01*
X032047Y035829D01*
Y035429D01*
X032147Y035329D01*
X032347D01*
X032447Y035429D01*
X032647Y035329D02*
X032847D01*
X032747D01*
Y035929D01*
X032647Y035829D01*
X033147Y035329D02*
X033347D01*
X033247D01*
Y035929D01*
X033147Y035829D01*
X032486Y037214D02*
X032287D01*
X032387D01*
Y036714D01*
X032287Y036614D01*
X032187D01*
X032087Y036714D01*
X033086Y037214D02*
X032686D01*
Y036914D01*
X032886Y037014D01*
X032986D01*
X033086Y036914D01*
Y036714D01*
X032986Y036614D01*
X032786D01*
X032686Y036714D01*
X031417Y029173D02*
Y029773D01*
X031717D01*
X031817Y029673D01*
Y029473D01*
X031717Y029373D01*
X031417D01*
X031617D02*
X031817Y029173D01*
X032017Y029273D02*
X032117Y029173D01*
X032317D01*
X032417Y029273D01*
Y029673D01*
X032317Y029773D01*
X032117D01*
X032017Y029673D01*
Y029573D01*
X032117Y029473D01*
X032417D01*
X031417Y028346D02*
Y028946D01*
X031717D01*
X031817Y028846D01*
Y028646D01*
X031717Y028546D01*
X031417D01*
X031617D02*
X031817Y028346D01*
X032017Y028846D02*
X032117Y028946D01*
X032317D01*
X032417Y028846D01*
Y028746D01*
X032317Y028646D01*
X032417Y028546D01*
Y028446D01*
X032317Y028346D01*
X032117D01*
X032017Y028446D01*
Y028546D01*
X032117Y028646D01*
X032017Y028746D01*
Y028846D01*
X032117Y028646D02*
X032317D01*
X031417Y027559D02*
Y028159D01*
X031717D01*
X031817Y028059D01*
Y027859D01*
X031717Y027759D01*
X031417D01*
X031617D02*
X031817Y027559D01*
X032017Y028159D02*
X032417D01*
Y028059D01*
X032017Y027659D01*
Y027559D01*
X023535Y023062D02*
X023335D01*
X023435D01*
Y022562D01*
X023335Y022462D01*
X023235D01*
X023135Y022562D01*
X024035Y022462D02*
Y023062D01*
X023735Y022762D01*
X024135D01*
X035669Y030442D02*
Y029843D01*
X035969D01*
X036069Y029942D01*
Y030342D01*
X035969Y030442D01*
X035669D01*
X036269Y030342D02*
X036369Y030442D01*
X036569D01*
X036669Y030342D01*
Y030242D01*
X036569Y030142D01*
X036469D01*
X036569D01*
X036669Y030042D01*
Y029942D01*
X036569Y029843D01*
X036369D01*
X036269Y029942D01*
X034409Y030639D02*
Y030039D01*
X034709D01*
X034809Y030139D01*
Y030539D01*
X034709Y030639D01*
X034409D01*
X035409Y030039D02*
X035009D01*
X035409Y030439D01*
Y030539D01*
X035309Y030639D01*
X035109D01*
X035009Y030539D01*
X036929Y030324D02*
Y029724D01*
X037229D01*
X037329Y029824D01*
Y030224D01*
X037229Y030324D01*
X036929D01*
X037529Y029724D02*
X037729D01*
X037629D01*
Y030324D01*
X037529Y030224D01*
X036024Y023474D02*
Y023374D01*
X036224Y023174D01*
X036423Y023374D01*
Y023474D01*
X036224Y023174D02*
Y022874D01*
X036623D02*
X036823D01*
X036723D01*
Y023474D01*
X036623Y023374D01*
X031072Y034409D02*
X030572D01*
X030472Y034309D01*
Y034110D01*
X030572Y034010D01*
X031072D01*
Y033410D02*
Y033810D01*
X030772D01*
X030872Y033610D01*
Y033510D01*
X030772Y033410D01*
X030572D01*
X030472Y033510D01*
Y033710D01*
X030572Y033810D01*
X027441Y030354D02*
Y030954D01*
X027741D01*
X027841Y030854D01*
Y030654D01*
X027741Y030554D01*
X027441D01*
X027641D02*
X027841Y030354D01*
X028441Y030954D02*
X028241Y030854D01*
X028041Y030654D01*
Y030454D01*
X028141Y030354D01*
X028341D01*
X028441Y030454D01*
Y030554D01*
X028341Y030654D01*
X028041D01*
X030315Y030591D02*
Y031190D01*
X030615D01*
X030715Y031090D01*
Y030890D01*
X030615Y030790D01*
X030315D01*
X030515D02*
X030715Y030591D01*
X031315Y031190D02*
X030915D01*
Y030890D01*
X031115Y030990D01*
X031215D01*
X031315Y030890D01*
Y030691D01*
X031215Y030591D01*
X031015D01*
X030915Y030691D01*
X026339Y037913D02*
Y038513D01*
X026638D01*
X026738Y038413D01*
Y038213D01*
X026638Y038113D01*
X026339D01*
X026539D02*
X026738Y037913D01*
X027238D02*
Y038513D01*
X026938Y038213D01*
X027338D01*
X036614Y025197D02*
Y025797D01*
X036914D01*
X037014Y025697D01*
Y025497D01*
X036914Y025397D01*
X036614D01*
X036814D02*
X037014Y025197D01*
X037214Y025697D02*
X037314Y025797D01*
X037514D01*
X037614Y025697D01*
Y025597D01*
X037514Y025497D01*
X037414D01*
X037514D01*
X037614Y025397D01*
Y025297D01*
X037514Y025197D01*
X037314D01*
X037214Y025297D01*
X025000Y018740D02*
X024400D01*
Y019040D01*
X024500Y019140D01*
X024700D01*
X024800Y019040D01*
Y018740D01*
Y018940D02*
X025000Y019140D01*
Y019740D02*
Y019340D01*
X024600Y019740D01*
X024500D01*
X024400Y019640D01*
Y019440D01*
X024500Y019340D01*
X033425Y016024D02*
Y016623D01*
X033725D01*
X033825Y016523D01*
Y016324D01*
X033725Y016224D01*
X033425D01*
X033625D02*
X033825Y016024D01*
X034025D02*
X034225D01*
X034125D01*
Y016623D01*
X034025Y016523D01*
X026266Y020679D02*
X026066D01*
X026166D01*
Y020179D01*
X026066Y020079D01*
X025966D01*
X025866Y020179D01*
X026466Y020579D02*
X026566Y020679D01*
X026766D01*
X026866Y020579D01*
Y020479D01*
X026766Y020379D01*
X026666D01*
X026766D01*
X026866Y020279D01*
Y020179D01*
X026766Y020079D01*
X026566D01*
X026466Y020179D01*
X033122Y022486D02*
X033022Y022387D01*
Y022187D01*
X033122Y022087D01*
X033522D01*
X033622Y022187D01*
Y022387D01*
X033522Y022486D01*
X033622Y022686D02*
Y022886D01*
Y022786D01*
X033022D01*
X033122Y022686D01*
Y023186D02*
X033022Y023286D01*
Y023486D01*
X033122Y023586D01*
X033522D01*
X033622Y023486D01*
Y023286D01*
X033522Y023186D01*
X033122D01*
X024927Y024555D02*
X024827Y024655D01*
X024628D01*
X024528Y024555D01*
Y024155D01*
X024628Y024055D01*
X024827D01*
X024927Y024155D01*
X025127D02*
X025227Y024055D01*
X025427D01*
X025527Y024155D01*
Y024555D01*
X025427Y024655D01*
X025227D01*
X025127Y024555D01*
Y024455D01*
X025227Y024355D01*
X025527D01*
X028825Y028413D02*
X028725Y028513D01*
X028525D01*
X028425Y028413D01*
Y028013D01*
X028525Y027913D01*
X028725D01*
X028825Y028013D01*
X029025Y028413D02*
X029125Y028513D01*
X029325D01*
X029425Y028413D01*
Y028313D01*
X029325Y028213D01*
X029425Y028113D01*
Y028013D01*
X029325Y027913D01*
X029125D01*
X029025Y028013D01*
Y028113D01*
X029125Y028213D01*
X029025Y028313D01*
Y028413D01*
X029125Y028213D02*
X029325D01*
X032959Y027364D02*
X032859Y027464D01*
X032659D01*
X032559Y027364D01*
Y026964D01*
X032659Y026864D01*
X032859D01*
X032959Y026964D01*
X033159Y027464D02*
X033559D01*
Y027364D01*
X033159Y026964D01*
Y026864D01*
X033038Y030736D02*
X032938Y030836D01*
X032738D01*
X032638Y030736D01*
Y030336D01*
X032738Y030236D01*
X032938D01*
X033038Y030336D01*
X033637Y030836D02*
X033438Y030736D01*
X033238Y030536D01*
Y030336D01*
X033338Y030236D01*
X033537D01*
X033637Y030336D01*
Y030436D01*
X033537Y030536D01*
X033238D01*
X026699Y017607D02*
X026599Y017707D01*
X026399D01*
X026299Y017607D01*
Y017207D01*
X026399Y017107D01*
X026599D01*
X026699Y017207D01*
X027299Y017707D02*
X026899D01*
Y017407D01*
X027099Y017507D01*
X027199D01*
X027299Y017407D01*
Y017207D01*
X027199Y017107D01*
X026999D01*
X026899Y017207D01*
X033786Y020185D02*
X033686Y020285D01*
X033486D01*
X033386Y020185D01*
Y019785D01*
X033486Y019685D01*
X033686D01*
X033786Y019785D01*
X034286Y019685D02*
Y020285D01*
X033986Y019985D01*
X034385D01*
X036227Y026523D02*
X036127Y026623D01*
X035927D01*
X035827Y026523D01*
Y026124D01*
X035927Y026024D01*
X036127D01*
X036227Y026124D01*
X036427Y026523D02*
X036527Y026623D01*
X036726D01*
X036826Y026523D01*
Y026423D01*
X036726Y026324D01*
X036627D01*
X036726D01*
X036826Y026224D01*
Y026124D01*
X036726Y026024D01*
X036527D01*
X036427Y026124D01*
X036227Y024949D02*
X036127Y025049D01*
X035927D01*
X035827Y024949D01*
Y024549D01*
X035927Y024449D01*
X036127D01*
X036227Y024549D01*
X036826Y024449D02*
X036427D01*
X036826Y024849D01*
Y024949D01*
X036726Y025049D01*
X036527D01*
X036427Y024949D01*
X036227Y021602D02*
X036127Y021702D01*
X035927D01*
X035827Y021602D01*
Y021202D01*
X035927Y021102D01*
X036127D01*
X036227Y021202D01*
X036427Y021102D02*
X036627D01*
X036527D01*
Y021702D01*
X036427Y021602D01*
X027172Y041151D02*
X026972D01*
X027072D01*
Y040651D01*
X026972Y040551D01*
X026872D01*
X026772Y040651D01*
X027371Y040551D02*
X027571D01*
X027471D01*
Y041151D01*
X027371Y041051D01*
X027496Y022093D02*
Y021594D01*
X027596Y021494D01*
X027796D01*
X027896Y021594D01*
Y022093D01*
X028096Y021993D02*
X028196Y022093D01*
X028396D01*
X028496Y021993D01*
Y021893D01*
X028396Y021794D01*
X028296D01*
X028396D01*
X028496Y021694D01*
Y021594D01*
X028396Y021494D01*
X028196D01*
X028096Y021594D01*
X035079Y035954D02*
Y035454D01*
X035179Y035354D01*
X035379D01*
X035479Y035454D01*
Y035954D01*
X035679Y035354D02*
X035878D01*
X035779D01*
Y035954D01*
X035679Y035854D01*
X021979Y036813D02*
Y036313D01*
X022079Y036213D01*
X022279D01*
X022379Y036313D01*
Y036813D01*
X022979Y036213D02*
X022579D01*
X022979Y036613D01*
Y036713D01*
X022879Y036813D01*
X022679D01*
X022579Y036713D01*
X033543Y015197D02*
Y015797D01*
X033843D01*
X033943Y015697D01*
Y015497D01*
X033843Y015397D01*
X033543D01*
X034543Y015197D02*
X034143D01*
X034543Y015597D01*
Y015697D01*
X034443Y015797D01*
X034243D01*
X034143Y015697D01*
X024061Y027371D02*
X023861D01*
X023961D01*
Y026872D01*
X023861Y026772D01*
X023761D01*
X023661Y026872D01*
X024661Y026772D02*
X024261D01*
X024661Y027172D01*
Y027271D01*
X024561Y027371D01*
X024361D01*
X024261Y027271D01*
X025709Y028080D02*
Y027580D01*
X025809Y027480D01*
X026009D01*
X026109Y027580D01*
Y028080D01*
X026608Y027480D02*
Y028080D01*
X026308Y027780D01*
X026708D01*
X030006Y032135D02*
X029606D01*
Y031835D01*
X029806D01*
X029606D01*
Y031535D01*
X030206D02*
X030406D01*
X030306D01*
Y032135D01*
X030206Y032035D01*
X030276Y015315D02*
Y015915D01*
X030575D01*
X030675Y015815D01*
Y015615D01*
X030575Y015515D01*
X030276D01*
X030476D02*
X030675Y015315D01*
X030875D02*
X031075D01*
X030975D01*
Y015915D01*
X030875Y015815D01*
X031375D02*
X031475Y015915D01*
X031675D01*
X031775Y015815D01*
Y015415D01*
X031675Y015315D01*
X031475D01*
X031375Y015415D01*
Y015815D01*
X037402Y031348D02*
Y030948D01*
X037601Y030748D01*
X037801Y030948D01*
Y031348D01*
X038401Y031248D02*
X038301Y031348D01*
X038101D01*
X038001Y031248D01*
Y030848D01*
X038101Y030748D01*
X038301D01*
X038401Y030848D01*
X039001Y031248D02*
X038901Y031348D01*
X038701D01*
X038601Y031248D01*
Y030848D01*
X038701Y030748D01*
X038901D01*
X039001Y030848D01*
X037480Y028937D02*
Y029337D01*
X037680Y029537D01*
X037880Y029337D01*
Y028937D01*
Y029237D01*
X037480D01*
X038480Y029437D02*
X038380Y029537D01*
X038180D01*
X038080Y029437D01*
Y029037D01*
X038180Y028937D01*
X038380D01*
X038480Y029037D01*
X038680Y029537D02*
X039080D01*
X038880D01*
Y028937D01*
X037368Y028610D02*
X037268Y028710D01*
X037068D01*
X036968Y028610D01*
Y028510D01*
X037068Y028410D01*
X037268D01*
X037368Y028310D01*
Y028210D01*
X037268Y028110D01*
X037068D01*
X036968Y028210D01*
X037568Y028710D02*
X037968D01*
X037768D01*
Y028110D01*
X038168D02*
Y028510D01*
X038368Y028710D01*
X038568Y028510D01*
Y028110D01*
Y028410D01*
X038168D01*
X038768Y028710D02*
X039168D01*
X038968D01*
Y028110D01*
X037959Y027883D02*
X037559D01*
Y027283D01*
X037959D01*
X037559Y027583D02*
X037759D01*
X038159Y027283D02*
Y027883D01*
X038459D01*
X038559Y027783D01*
Y027583D01*
X038459Y027483D01*
X038159D01*
X038359D02*
X038559Y027283D01*
X038759D02*
Y027883D01*
X039059D01*
X039159Y027783D01*
Y027583D01*
X039059Y027483D01*
X038759D01*
X038959D02*
X039159Y027283D01*
X026542Y029852D02*
X026142D01*
Y029552D01*
X026342Y029652D01*
X026442D01*
X026542Y029552D01*
Y029352D01*
X026442Y029252D01*
X026242D01*
X026142Y029352D01*
X026742Y029852D02*
Y029452D01*
X026941Y029252D01*
X027141Y029452D01*
Y029852D01*
X027341Y029152D02*
X027741D01*
X027941Y029852D02*
X028141D01*
X028041D01*
Y029252D01*
X027941D01*
X028141D01*
X028841Y029752D02*
X028741Y029852D01*
X028541D01*
X028441Y029752D01*
Y029652D01*
X028541Y029552D01*
X028741D01*
X028841Y029452D01*
Y029352D01*
X028741Y029252D01*
X028541D01*
X028441Y029352D01*
X029341Y029852D02*
X029141D01*
X029041Y029752D01*
Y029352D01*
X029141Y029252D01*
X029341D01*
X029441Y029352D01*
Y029752D01*
X029341Y029852D01*
X026659Y032949D02*
X026623Y033086D01*
X026449Y033186D01*
X026313Y033149D01*
X026113Y032803D01*
X026150Y032667D01*
X026323Y032567D01*
X026459Y032603D01*
X026559Y032776D01*
X026386Y032876D01*
X026532Y032330D02*
X026879Y032130D01*
X027402Y032636D02*
X027575Y032536D01*
X027488Y032586D01*
X027188Y032067D01*
X027102Y032117D01*
X027275Y032017D01*
X028131Y032100D02*
X028094Y032236D01*
X027921Y032336D01*
X027785Y032300D01*
X027735Y032213D01*
X027771Y032077D01*
X027944Y031977D01*
X027981Y031840D01*
X027931Y031753D01*
X027794Y031717D01*
X027621Y031817D01*
X027585Y031953D01*
X028614Y031936D02*
X028441Y032036D01*
X028304Y032000D01*
X028104Y031653D01*
X028141Y031517D01*
X028314Y031417D01*
X028450Y031454D01*
X028650Y031800D01*
X028614Y031936D01*
X026620Y033964D02*
X026520Y034064D01*
X026320D01*
X026220Y033964D01*
Y033565D01*
X026320Y033465D01*
X026520D01*
X026620Y033565D01*
Y033764D01*
X026420D01*
X026820Y033465D02*
Y034064D01*
X027220Y033465D01*
Y034064D01*
X027420D02*
Y033465D01*
X027720D01*
X027820Y033565D01*
Y033964D01*
X027720Y034064D01*
X027420D01*
X025227Y036024D02*
X025627D01*
X025827Y036224D01*
X025627Y036423D01*
X025227D01*
Y036623D02*
X025727D01*
X025827Y036723D01*
Y036923D01*
X025727Y037023D01*
X025227D01*
X025327Y037623D02*
X025227Y037523D01*
Y037323D01*
X025327Y037223D01*
X025427D01*
X025527Y037323D01*
Y037523D01*
X025627Y037623D01*
X025727D01*
X025827Y037523D01*
Y037323D01*
X025727Y037223D01*
X025227Y037823D02*
X025827D01*
Y038123D01*
X025727Y038223D01*
X025627D01*
X025527Y038123D01*
Y037823D01*
Y038123D01*
X025427Y038223D01*
X025327D01*
X025227Y038123D01*
Y037823D01*
X037983Y015379D02*
Y015179D01*
X038083Y015079D01*
X038483D01*
X038583Y015179D01*
Y015379D01*
X038483Y015479D01*
X038083D01*
X037983Y015379D01*
X038783Y015679D02*
X038183D01*
Y015978D01*
X038283Y016078D01*
X038483D01*
X038583Y015978D01*
Y015679D01*
Y016578D02*
Y016378D01*
X038483Y016278D01*
X038283D01*
X038183Y016378D01*
Y016578D01*
X038283Y016678D01*
X038383D01*
Y016278D01*
X038583Y016878D02*
X038183D01*
Y017178D01*
X038283Y017278D01*
X038583D01*
X038283Y017478D02*
Y017878D01*
X038083Y018478D02*
X037983Y018378D01*
Y018178D01*
X038083Y018078D01*
X038483D01*
X038583Y018178D01*
Y018378D01*
X038483Y018478D01*
X038183Y018778D02*
Y018977D01*
X038283Y019077D01*
X038583D01*
Y018778D01*
X038483Y018678D01*
X038383Y018778D01*
Y019077D01*
X038583Y019277D02*
X038183D01*
Y019577D01*
X038283Y019677D01*
X038583D01*
X038183Y019977D02*
Y020177D01*
X038283Y020277D01*
X038583D01*
Y019977D01*
X038483Y019877D01*
X038383Y019977D01*
Y020277D01*
X038583Y020477D02*
Y020677D01*
Y020577D01*
X037983D01*
Y020477D01*
X038183Y020977D02*
X038483D01*
X038583Y021077D01*
Y021377D01*
X038683D01*
X038783Y021277D01*
Y021177D01*
X038583Y021377D02*
X038183D01*
Y021577D02*
Y021976D01*
X038583Y021577D01*
Y021976D01*
Y022476D02*
Y022276D01*
X038483Y022176D01*
X038283D01*
X038183Y022276D01*
Y022476D01*
X038283Y022576D01*
X038383D01*
Y022176D01*
X038183Y022776D02*
X038583D01*
X038383D01*
X038283Y022876D01*
X038183Y022976D01*
Y023076D01*
X020939Y015394D02*
X021339Y015794D01*
X021139Y015594D01*
X020939Y015794D01*
X021339Y015394D01*
Y016093D02*
Y016293D01*
X021239Y016393D01*
X021039D01*
X020939Y016293D01*
Y016093D01*
X021039Y015993D01*
X021239D01*
X021339Y016093D01*
X020939Y016593D02*
X021339D01*
X021139D01*
X021039Y016693D01*
X020939Y016793D01*
Y016893D01*
X021039Y017193D02*
Y017593D01*
X021539Y017993D02*
Y018093D01*
X021439Y018193D01*
X020939D01*
Y017893D01*
X021039Y017793D01*
X021239D01*
X021339Y017893D01*
Y018193D01*
X020939Y018493D02*
Y018693D01*
X021039Y018793D01*
X021339D01*
Y018493D01*
X021239Y018393D01*
X021139Y018493D01*
Y018793D01*
X020839Y019092D02*
X020939D01*
Y018993D01*
Y019192D01*
Y019092D01*
X021239D01*
X021339Y019192D01*
Y019792D02*
Y019592D01*
X021239Y019492D01*
X021039D01*
X020939Y019592D01*
Y019792D01*
X021039Y019892D01*
X021139D01*
Y019492D01*
X021339Y020092D02*
X021239D01*
Y020192D01*
X021339D01*
Y020092D01*
Y020692D02*
Y020892D01*
X021239Y020992D01*
X021039D01*
X020939Y020892D01*
Y020692D01*
X021039Y020592D01*
X021239D01*
X021339Y020692D01*
X020939Y021192D02*
X021339D01*
X021139D01*
X021039Y021292D01*
X020939Y021392D01*
Y021492D01*
X021539Y021992D02*
Y022092D01*
X021439Y022191D01*
X020939D01*
Y021892D01*
X021039Y021792D01*
X021239D01*
X021339Y021892D01*
Y022191D01*
X021644Y016699D02*
X022244D01*
Y016399D01*
X022144Y016299D01*
X021944D01*
X021844Y016399D01*
Y016699D01*
X022244Y017199D02*
Y016999D01*
X022144Y016899D01*
X021944D01*
X021844Y016999D01*
Y017199D01*
X021944Y017299D01*
X022044D01*
Y016899D01*
X021844Y017499D02*
X022244Y017699D01*
X021844Y017899D01*
X021944Y018099D02*
Y018498D01*
X021744Y018798D02*
X021844D01*
Y018698D01*
Y018898D01*
Y018798D01*
X022144D01*
X022244Y018898D01*
X021744Y019298D02*
X021844D01*
Y019198D01*
Y019398D01*
Y019298D01*
X022144D01*
X022244Y019398D01*
X021844Y019698D02*
X022144D01*
X022244Y019798D01*
Y020098D01*
X022344D01*
X022444Y019998D01*
Y019898D01*
X022244Y020098D02*
X021844D01*
X022244Y020298D02*
X022144D01*
Y020398D01*
X022244D01*
Y020298D01*
Y020798D02*
X021844D01*
Y021098D01*
X021944Y021198D01*
X022244D01*
Y021398D02*
Y021597D01*
Y021498D01*
X021644D01*
Y021398D01*
D48*
X023626Y011693D02*
G03*
X023626Y011693I-001500J000000D01*
G01*
X039138D02*
G03*
X039138Y011693I-001500J000000D01*
G01*
Y039803D02*
G03*
X039138Y039803I-001500J000000D01*
G01*
X023626D02*
G03*
X023626Y039803I-001500J000000D01*
G01*
X025451Y030888D02*
X025651D01*
X025551Y030788D02*
Y030988D01*
X032975Y031396D02*
Y031596D01*
X032875Y031496D02*
X033075D01*
X035646Y024296D02*
X035646Y024996D01*
X034246Y024296D02*
Y024996D01*
X035646Y024996D01*
X034246Y024296D02*
X035646D01*
X034236Y021146D02*
X034236Y021846D01*
X035636Y021146D02*
Y021846D01*
X034236Y021146D02*
X035636Y021146D01*
X034236Y021846D02*
X035636D01*
X032420Y033959D02*
X032620D01*
X032520Y033859D02*
Y034059D01*
X026225Y015378D02*
X026925Y015378D01*
X026225Y016778D02*
X026925D01*
X026925Y015378D01*
X026225Y015378D02*
Y016778D01*
X032485Y025142D02*
X033185Y025142D01*
X032485Y026542D02*
X033185D01*
X033185Y025142D01*
X032485Y025142D02*
Y026542D01*
X028694Y015162D02*
X030094D01*
X028694Y015862D02*
X030094Y015862D01*
X028694Y015162D02*
Y015862D01*
X030094Y015162D02*
X030094Y015862D01*
X025162Y018291D02*
X025862Y018291D01*
X025162Y019691D02*
X025862D01*
X025862Y018291D01*
X025162Y018291D02*
Y019691D01*
X033205Y019650D02*
X033205Y020350D01*
X031805Y019650D02*
Y020350D01*
X033205Y020350D01*
X031805Y019650D02*
X033205D01*
X035646Y025083D02*
X035646Y025783D01*
X034246Y025083D02*
Y025783D01*
X035646Y025783D01*
X034246Y025083D02*
X035646D01*
X034236Y025870D02*
X034236Y026570D01*
X035636Y025870D02*
Y026570D01*
X034236Y025870D02*
X035636Y025870D01*
X034236Y026570D02*
X035636D01*
X028165Y027839D02*
X028165Y028539D01*
X026765Y027839D02*
Y028539D01*
X028165Y028539D01*
X026765Y027839D02*
X028165D01*
X034031Y027563D02*
X034031Y028263D01*
X032631Y027563D02*
Y028263D01*
X034031Y028263D01*
X032631Y027563D02*
X034031D01*
X034013Y028332D02*
X034013Y029032D01*
X032613Y028332D02*
Y029032D01*
X034013Y029032D01*
X032613Y028332D02*
X034013D01*
Y029119D02*
X034013Y029819D01*
X032613Y029119D02*
Y029819D01*
X034013Y029819D01*
X032613Y029119D02*
X034013D01*
X028508Y031394D02*
X029208Y031394D01*
X028508Y029994D02*
X029208D01*
X028508Y031394D02*
X028508Y029994D01*
X029208D02*
Y031394D01*
X029493Y031394D02*
X030193Y031394D01*
X029493Y029994D02*
X030193D01*
X029493Y031394D02*
X029493Y029994D01*
X030193D02*
Y031394D01*
X026540Y036362D02*
X027240Y036362D01*
X026540Y037762D02*
X027240D01*
X027240Y036362D01*
X026540Y036362D02*
Y037762D01*
X033992Y021264D02*
X033992Y021964D01*
X032592Y021264D02*
Y021964D01*
X033992Y021964D01*
X032592Y021264D02*
X033992D01*
X032288Y016709D02*
X032988Y016709D01*
X032288Y015309D02*
X032988D01*
X032288Y016709D02*
X032288Y015309D01*
X032988D02*
Y016709D01*
X024453Y023913D02*
X025153Y023913D01*
X024453Y022513D02*
X025153D01*
X024453Y023913D02*
X024453Y022513D01*
X025153D02*
Y023913D01*
D49*
X035925Y022051D02*
G03*
X035925Y022051I-000020J000000D01*
G01*
X034764Y027698D02*
X035079D01*
X034764Y028170D02*
X035079D01*
Y027777D02*
Y028092D01*
X034921D02*
X035079Y027934D01*
X034764D02*
X034921D01*
Y027777D02*
Y028092D01*
Y027777D02*
X035079Y027934D01*
X034921Y029351D02*
X035079Y029509D01*
X034921Y029351D02*
Y029666D01*
X034764Y029509D02*
X034921D01*
Y029666D02*
X035079Y029509D01*
Y029351D02*
Y029666D01*
X034764Y029745D02*
X035079D01*
X034764Y029273D02*
X035079D01*
X034921Y028564D02*
X035079Y028721D01*
X034921Y028564D02*
Y028879D01*
X034764Y028721D02*
X034921D01*
Y028879D02*
X035079Y028721D01*
Y028564D02*
Y028879D01*
X034764Y028958D02*
X035079D01*
X034764Y028485D02*
X035079D01*
D50*
X030406Y034941D02*
G03*
X030406Y034941I-000049J000000D01*
G01*
X031392Y020443D02*
G03*
X031392Y020443I-000049J000000D01*
G01*
X031348Y022815D02*
G03*
X031348Y022815I-000049J000000D01*
G01*
X030600Y037657D02*
G03*
X030600Y037657I-000049J000000D01*
G01*
X034321Y034980D02*
G03*
X034321Y034980I-000049J000000D01*
G01*
D51*
X030000Y034016D02*
G03*
X030000Y034016I-000079J000000D01*
G01*
D52*
X031102Y019350D02*
G03*
X031102Y019350I-000118J000000D01*
G01*
X030453Y023327D02*
G03*
X030453Y023327I-000118J000000D01*
G01*
D53*
X026083Y035315D02*
G03*
X026083Y035315I-000571J000000D01*
G01*
D54*
X024595Y015341D02*
X025055Y015201D01*
X024265Y015191D02*
X025055Y015201D01*
X023215Y015331D02*
X023405Y015661D01*
X023485Y015191D01*
X022915D02*
X023485D01*
X022915D02*
X023535Y016201D01*
X023565Y016131D01*
X023495Y015991D02*
X023565Y016131D01*
X023495Y015991D02*
X023665Y015211D01*
X023955D01*
X023915Y015911D02*
X024065Y015841D01*
X023915Y015911D02*
X023995Y015731D01*
X024005Y015281D01*
X024145Y015191D01*
X024385Y015281D01*
X024455Y015441D01*
X024635Y015531D01*
X025285Y015191D01*
X025255Y016061D02*
X025625Y015531D01*
X025085Y015841D02*
X025625Y015531D01*
X025085Y015841D02*
X025215Y016211D01*
X024325Y017041D02*
X024595Y017011D01*
X024355Y017371D02*
X024595Y017011D01*
X024035Y016861D02*
X024355Y017371D01*
X024035Y016861D02*
X024855Y016821D01*
X024375Y017741D02*
X024855Y016821D01*
X023735Y016581D02*
X024375Y017741D01*
X023735Y016581D02*
X023835Y016571D01*
X024015Y016691D01*
X024915Y016741D01*
D55*
X022735Y015091D02*
X023465Y016361D01*
X022735Y015091D02*
X025645D01*
X024635Y015671D02*
X025645Y015091D01*
X024385Y015561D02*
X024635Y015671D01*
X024305Y015471D02*
X024385Y015561D01*
X024295Y015361D02*
X024305Y015471D01*
X024235Y015311D02*
X024295Y015361D01*
X024145Y015321D02*
X024235Y015311D01*
X024105Y015571D02*
X024145Y015321D01*
X024105Y015571D02*
X024145Y015741D01*
X024235Y015861D01*
X023865Y016081D02*
X024235Y015861D01*
X023795Y015881D02*
X023865Y016081D01*
X023795Y015881D02*
X023855Y015751D01*
X023865Y015621D01*
X023915Y015411D01*
X023865Y015341D02*
X023915Y015411D01*
X023815Y015321D02*
X023865Y015341D01*
X023755Y015351D02*
X023815Y015321D01*
X023605Y015961D02*
X023755Y015351D01*
X023605Y015961D02*
X023625Y016051D01*
X023705Y016201D01*
X023465Y016361D02*
X023705Y016201D01*
X025255Y016361D02*
X025905Y015261D01*
X024915Y015831D02*
X025905Y015261D01*
X024915Y015831D02*
X025025Y015941D01*
X025045Y016081D01*
X025065Y016191D01*
X025155Y016321D01*
X025255Y016361D01*
X023585Y016571D02*
X024370Y017923D01*
X023585Y016571D02*
X023845Y016421D01*
X023925Y016501D01*
X024015Y016571D01*
X024655Y016581D01*
X024945Y016631D01*
X025075Y016701D01*
X024370Y017923D02*
X025075Y016701D01*
X023819Y010039D02*
Y014882D01*
X035945Y010039D02*
Y014882D01*
X023819D02*
X035945D01*
D56*
X025001Y030188D02*
X026101D01*
Y031943D01*
X025001D02*
X026101D01*
X025001Y030188D02*
Y031943D01*
X032275Y030946D02*
Y032046D01*
Y030946D02*
X034030D01*
Y032046D01*
X032275D02*
X034030D01*
X031970Y033259D02*
X033070D01*
Y035014D01*
X031970D02*
X033070D01*
X031970Y033259D02*
Y035014D01*
D57*
X034961Y022067D02*
X035118D01*
X035689Y022795D02*
Y023346D01*
X034390Y022795D02*
Y023346D01*
X034961Y024075D02*
X035118D01*
X028268Y034331D02*
X030236D01*
X028268Y033543D02*
X030236D01*
Y034331D01*
X028268Y033543D02*
Y034331D01*
X027598Y017579D02*
Y019744D01*
X031378Y017579D02*
Y019744D01*
X027598Y017579D02*
X031378D01*
X027598Y019744D02*
X031378D01*
X030728Y022933D02*
Y026201D01*
X027461Y022933D02*
Y026201D01*
Y022933D02*
X030728D01*
X027461Y026201D02*
X030728D01*
X030650Y032146D02*
Y032421D01*
X031240Y032146D02*
Y032421D01*
X034921Y032343D02*
X035945D01*
X034921Y034980D02*
X035945D01*
Y032343D02*
Y034980D01*
X034921Y032343D02*
Y034980D01*
M02*
